<svg width="21" height="26" viewBox="0 0 21 26" fill="none" xmlns="http://www.w3.org/2000/svg">
<path d="M10.3412 12.3171C12.0069 12.3171 13.4493 11.7102 14.6278 10.5128C15.8063 9.31556 16.4038 7.85069 16.4038 6.15835C16.4038 4.4666 15.8063 3.00153 14.6276 1.80392C13.4489 0.606901 12.0067 0 10.3412 0C8.67525 0 7.23324 0.606901 6.05471 1.80412C4.87618 3.00134 4.27856 4.46641 4.27856 6.15835C4.27856 7.85069 4.87618 9.31576 6.05491 10.513C7.23363 11.71 8.67582 12.3171 10.3412 12.3171Z" fill="#EF7E5B"/>
<path d="M20.9491 19.6619C20.9151 19.1637 20.8464 18.6202 20.7452 18.0463C20.643 17.468 20.5115 16.9214 20.354 16.4218C20.1913 15.9054 19.9701 15.3955 19.6966 14.9068C19.4128 14.3996 19.0794 13.9579 18.7054 13.5945C18.3142 13.2143 17.8352 12.9086 17.2814 12.6856C16.7295 12.4638 16.1178 12.3514 15.4636 12.3514C15.2066 12.3514 14.9581 12.4585 14.4782 12.7759C14.1829 12.9716 13.8374 13.1979 13.4518 13.4482C13.1221 13.6616 12.6754 13.8616 12.1237 14.0426C11.5854 14.2195 11.0389 14.3093 10.4994 14.3093C9.95999 14.3093 9.41365 14.2195 8.87479 14.0426C8.32365 13.8617 7.87697 13.6618 7.54763 13.4484C7.16566 13.2004 6.82 12.9741 6.52023 12.7757C6.0409 12.4583 5.79222 12.3512 5.53527 12.3512C4.88081 12.3512 4.26936 12.4638 3.71764 12.6858C3.16419 12.9084 2.68506 13.2141 2.2935 13.5947C1.9196 13.9583 1.58603 14.3998 1.30259 14.9068C1.02932 15.3955 0.808091 15.9052 0.645244 16.422C0.487966 16.9216 0.35642 17.468 0.254257 18.0463C0.153053 18.6194 0.0843042 19.1631 0.0503137 19.6625C0.0168992 20.1518 0 20.6596 0 21.1725C0 22.5072 0.41768 23.5878 1.24133 24.3847C2.05479 25.171 3.13116 25.57 4.44008 25.57H16.5599C17.8688 25.57 18.9448 25.1712 19.7585 24.3847C20.5823 23.5883 21 22.5076 21 21.1723C20.9998 20.657 20.9827 20.1489 20.9491 19.6619Z" fill="#EF7E5B"/>
</svg>
