<svg width="21" height="26" viewBox="0 0 21 26" fill="none" xmlns="http://www.w3.org/2000/svg">
<path d="M10.3412 12.1248C12.0069 12.1248 13.4491 11.5274 14.6278 10.3487C15.8062 9.17014 16.4038 7.72814 16.4038 6.06222C16.4038 4.39688 15.8063 2.95468 14.6276 1.77576C13.4489 0.597427 12.0067 0 10.3412 0C8.67525 0 7.23324 0.597427 6.05471 1.77596C4.87618 2.95449 4.27856 4.39668 4.27856 6.06222C4.27856 7.72814 4.87618 9.17034 6.05471 10.3489C7.23363 11.5272 8.67582 12.1248 10.3412 12.1248V12.1248ZM7.09786 2.81891C8.00216 1.91461 9.06297 1.47504 10.3412 1.47504C11.6192 1.47504 12.6802 1.91461 13.5847 2.81891C14.489 3.7234 14.9287 4.78441 14.9287 6.06222C14.9287 7.34042 14.489 8.40123 13.5847 9.30572C12.6802 10.2102 11.6192 10.6498 10.3412 10.6498C9.06336 10.6498 8.00254 10.21 7.09786 9.30572C6.19336 8.40142 5.7536 7.34042 5.7536 6.06222C5.7536 4.78441 6.19336 3.7234 7.09786 2.81891Z" fill="#EF7E5B"/>
<path d="M20.9491 19.355C20.9151 18.8645 20.8464 18.3295 20.7452 17.7645C20.643 17.1954 20.5115 16.6573 20.354 16.1655C20.1911 15.6571 19.9701 15.1552 19.6965 14.6741C19.4128 14.1748 19.0794 13.74 18.7054 13.3823C18.3142 13.008 17.8352 12.7071 17.2814 12.4876C16.7295 12.2692 16.1178 12.1586 15.4636 12.1586C15.2066 12.1586 14.9581 12.264 14.4782 12.5765C14.1829 12.7691 13.8374 12.9919 13.4518 13.2382C13.1221 13.4483 12.6754 13.6452 12.1237 13.8234C11.5854 13.9976 11.0389 14.0859 10.4992 14.0859C9.95999 14.0859 9.41346 13.9976 8.87479 13.8234C8.32365 13.6454 7.87678 13.4485 7.54762 13.2384C7.16566 12.9944 6.82 12.7716 6.52023 12.5763C6.04071 12.2638 5.79222 12.1584 5.53527 12.1584C4.88081 12.1584 4.26936 12.2692 3.71764 12.4878C3.16419 12.7069 2.68506 13.0078 2.2935 13.3825C1.91941 13.7404 1.58603 14.175 1.30259 14.6741C1.02932 15.1552 0.808091 15.6569 0.645244 16.1657C0.487966 16.6575 0.35642 17.1954 0.254257 17.7645C0.152861 18.3288 0.0843042 18.864 0.0503137 19.3556C0.0168992 19.8362 0 20.3365 0 20.8419C0 22.1559 0.41768 23.2195 1.24133 24.004C2.05479 24.7781 3.13097 25.1706 4.44008 25.1706H16.5599C17.8686 25.1706 18.9448 24.7781 19.7585 24.004C20.5823 23.2201 21 22.156 21 20.8417C20.9998 20.3346 20.9827 19.8343 20.9491 19.355V19.355ZM18.7415 22.9353C18.2039 23.4469 17.4903 23.6956 16.5597 23.6956H4.44008C3.50928 23.6956 2.79567 23.4469 2.25835 22.9355C1.73121 22.4337 1.47504 21.7487 1.47504 20.8419C1.47504 20.3703 1.49059 19.9046 1.5217 19.4575C1.55204 19.0189 1.61407 18.5371 1.70606 18.0251C1.79689 17.5195 1.9125 17.045 2.04999 16.6154C2.18192 16.2035 2.36186 15.7956 2.58501 15.4027C2.79798 15.0282 3.04302 14.7069 3.3134 14.4481C3.56632 14.2059 3.8851 14.0077 4.26072 13.8591C4.60812 13.7216 4.99853 13.6463 5.42235 13.635C5.47401 13.6624 5.566 13.7149 5.71502 13.812C6.01824 14.0097 6.36775 14.2351 6.75413 14.4819C7.18967 14.7596 7.7508 15.0104 8.4212 15.2268C9.10658 15.4484 9.80559 15.5609 10.4994 15.5609C11.1933 15.5609 11.8925 15.4484 12.5775 15.227C13.2484 15.0102 13.8094 14.7596 14.2455 14.4815C14.6409 14.2288 14.9806 14.0098 15.2838 13.812C15.4329 13.7151 15.5248 13.6624 15.5765 13.635C16.0005 13.6463 16.3909 13.7216 16.7385 13.8591C17.1139 14.0077 17.4327 14.2061 17.6856 14.4481C17.956 14.7067 18.2011 15.028 18.414 15.4029C18.6374 15.7956 18.8175 16.2037 18.9492 16.6152C19.0869 17.0454 19.2027 17.5197 19.2934 18.025C19.3852 18.5379 19.4474 19.0199 19.4777 19.4577V19.4581C19.509 19.9035 19.5248 20.369 19.525 20.8419C19.5248 21.7489 19.2686 22.4337 18.7415 22.9353V22.9353Z" fill="#EF7E5B"/>
</svg>
