<?xml version="1.0" encoding="utf-8"?>
<!-- Generator: Adobe Illustrator 23.1.0, SVG Export Plug-In . SVG Version: 6.00 Build 0)  -->
<svg version="1.1" id="Layer_1" xmlns="http://www.w3.org/2000/svg" xmlns:xlink="http://www.w3.org/1999/xlink" x="0px" y="0px"
	 viewBox="0 0 30 30" style="enable-background:new 0 0 30 30;" xml:space="preserve">
<style type="text/css">
	.st0{fill:#FEFDFD;}
	.st1{fill:#E18869;}
	.st2{fill:#FEFEFD;}
	.st3{fill:#FEFCFC;}
	.st4{fill:#E28D6F;}
	.st5{fill:#E28C6D;}
	.st6{fill:#E18767;}
</style>
<g>
	<g>
		<path class="st0" d="M0,0c10,0,20,0,30,0c0,10,0,20,0,30c-10,0-20,0-30,0C0,20,0,10,0,0z M14.88,28.2c2.29,0,4.58,0,6.87,0
			c1.83,0,2.78-0.96,2.78-2.78c0-2.71,0.01-5.41-0.01-8.12c0-0.5,0.15-0.79,0.57-1.05c2.01-1.27,3.05-3.16,3.06-5.5
			c0.02-4.13-3.56-6.99-7.2-6.61c-0.29,0.03-0.7-0.09-0.91-0.3c-3.04-2.91-7.23-2.91-10.33,0c-0.2,0.19-0.56,0.27-0.85,0.3
			C8.39,4.19,7.9,4.12,7.42,4.17C4.66,4.44,2.37,6.57,1.73,9.45c-0.56,2.53,0.71,5.49,2.96,6.82c0.43,0.26,0.6,0.53,0.6,1.04
			c-0.03,2.66,0.05,5.32-0.04,7.98c-0.06,1.91,1.13,3.01,2.91,2.94C10.39,28.14,12.64,28.2,14.88,28.2z"/>
		<path class="st1" d="M14.88,28.2c-2.24,0-4.49-0.07-6.73,0.02c-1.78,0.07-2.97-1.03-2.91-2.94c0.09-2.66,0.01-5.32,0.04-7.98
			c0.01-0.51-0.17-0.78-0.6-1.04c-2.25-1.33-3.51-4.29-2.96-6.82c0.64-2.88,2.93-5.01,5.69-5.28C7.9,4.12,8.39,4.19,8.87,4.14
			c0.29-0.03,0.65-0.11,0.85-0.3c3.1-2.91,7.28-2.91,10.33,0c0.21,0.2,0.61,0.33,0.91,0.3c3.63-0.38,7.21,2.48,7.2,6.61
			c-0.01,2.34-1.05,4.23-3.06,5.5c-0.42,0.27-0.57,0.56-0.57,1.05c0.03,2.71,0.01,5.41,0.01,8.12c0,1.82-0.95,2.77-2.78,2.78
			C19.46,28.2,17.17,28.2,14.88,28.2z M23.37,22.2c0-0.29,0-0.53,0-0.78c0-1.57,0.01-3.15-0.01-4.72c-0.01-0.55,0.18-0.88,0.69-1.14
			c3.47-1.8,4-6.51,1.02-9.04c-1.09-0.92-2.35-1.39-3.73-1.25c0.26,1.11,0.52,2.15,0.72,3.21c0.08,0.41,0.06,0.91-0.53,0.92
			c-0.55,0.02-0.55-0.43-0.57-0.84c-0.13-2.71-2.08-5-4.75-5.62c-2.64-0.61-5.46,0.64-6.65,3.08C9.14,6.9,9.05,7.92,8.75,8.86
			C8.68,9.08,8.4,9.24,8.22,9.43c-0.19-0.2-0.45-0.37-0.53-0.61C7.6,8.59,7.66,8.28,7.73,8.01C7.96,7.1,8.23,6.2,8.48,5.3
			c-0.36,0-0.79-0.06-1.18,0.01c-2.42,0.45-4.12,2.22-4.5,4.66c-0.35,2.23,0.86,4.56,2.97,5.63c0.49,0.25,0.65,0.57,0.64,1.09
			c-0.02,1.6-0.01,3.19-0.01,4.79c0,0.24,0,0.48,0,0.72C12.1,22.2,17.69,22.2,23.37,22.2z M23.33,23.35c-5.57,0-11.02,0-16.48,0
			c-0.37,0-0.47,0.17-0.46,0.51c0.02,0.6-0.01,1.2,0.01,1.8c0.02,0.86,0.54,1.38,1.39,1.4c0.53,0.02,1.06,0,1.6,0
			c4.14,0,8.28,0,12.42,0c0.88,0,1.48-0.39,1.52-1.08C23.37,25.14,23.33,24.29,23.33,23.35z"/>
		<path class="st2" d="M23.37,22.2c-5.68,0-11.27,0-16.98,0c0-0.24,0-0.48,0-0.72c0-1.6-0.01-3.19,0.01-4.79
			c0.01-0.52-0.14-0.84-0.64-1.09c-2.11-1.07-3.32-3.4-2.97-5.63c0.38-2.44,2.08-4.21,4.5-4.66C7.69,5.24,8.11,5.3,8.48,5.3
			C8.23,6.2,7.96,7.1,7.73,8.01C7.66,8.28,7.6,8.59,7.68,8.83c0.08,0.23,0.35,0.41,0.53,0.61C8.4,9.24,8.68,9.08,8.75,8.86
			c0.3-0.94,0.39-1.96,0.81-2.83c1.19-2.44,4.01-3.68,6.65-3.08c2.67,0.61,4.62,2.91,4.75,5.62c0.02,0.41,0.02,0.86,0.57,0.84
			c0.59-0.02,0.61-0.51,0.53-0.92c-0.21-1.05-0.47-2.09-0.72-3.21c1.38-0.14,2.64,0.32,3.73,1.25c2.98,2.52,2.45,7.23-1.02,9.04
			c-0.51,0.26-0.7,0.59-0.69,1.14c0.02,1.57,0.01,3.15,0.01,4.72C23.37,21.67,23.37,21.91,23.37,22.2z M22.12,14.35
			c-0.12-0.13-0.29-0.5-0.5-0.52c-0.2-0.02-0.5,0.29-0.63,0.53c-0.48,0.91-0.89,1.85-1.34,2.77c-0.2,0.4-0.81,0.79-0.26,1.24
			c0.61,0.5,0.89-0.19,1.16-0.56C21.26,16.81,21.93,15.79,22.12,14.35z M7.61,14.32c0.32,1.67,1.08,2.94,2.12,4.05
			c0.1,0.11,0.45,0.11,0.61,0.02c0.13-0.07,0.21-0.34,0.21-0.53c0-0.16-0.13-0.34-0.24-0.48c-0.7-0.95-1.35-1.91-1.57-3.12
			c-0.03-0.19-0.42-0.47-0.62-0.45C7.92,13.84,7.75,14.18,7.61,14.32z M15.43,16.18c0-0.58,0.05-1.16-0.03-1.73
			c-0.03-0.24-0.34-0.45-0.52-0.67c-0.19,0.22-0.52,0.44-0.53,0.66c-0.05,1.13-0.05,2.26,0,3.39c0.01,0.23,0.32,0.58,0.54,0.62
			c0.45,0.08,0.55-0.3,0.55-0.68C15.42,17.24,15.43,16.71,15.43,16.18z"/>
		<path class="st3" d="M23.33,23.35c0,0.94,0.04,1.79-0.01,2.64c-0.04,0.69-0.64,1.08-1.52,1.08c-4.14,0-8.28,0-12.42,0
			c-0.53,0-1.06,0.01-1.6,0c-0.85-0.03-1.36-0.55-1.39-1.4c-0.02-0.6,0.01-1.2-0.01-1.8c-0.01-0.34,0.09-0.51,0.46-0.51
			C12.31,23.36,17.76,23.35,23.33,23.35z"/>
		<path class="st4" d="M22.12,14.35c-0.19,1.44-0.86,2.46-1.58,3.45c-0.27,0.38-0.55,1.06-1.16,0.56c-0.55-0.45,0.06-0.84,0.26-1.24
			c0.46-0.92,0.87-1.86,1.34-2.77c0.12-0.24,0.43-0.55,0.63-0.53C21.83,13.85,22,14.22,22.12,14.35z"/>
		<path class="st5" d="M7.61,14.32c0.14-0.14,0.31-0.48,0.51-0.5c0.2-0.02,0.58,0.25,0.62,0.45c0.21,1.2,0.87,2.17,1.57,3.12
			c0.11,0.15,0.24,0.32,0.24,0.48c0,0.18-0.08,0.46-0.21,0.53c-0.16,0.09-0.51,0.09-0.61-0.02C8.69,17.26,7.93,15.99,7.61,14.32z"/>
		<path class="st6" d="M15.43,16.18c0,0.53,0,1.06,0,1.59c0,0.39-0.1,0.77-0.55,0.68c-0.22-0.04-0.52-0.4-0.54-0.62
			c-0.06-1.13-0.06-2.26,0-3.39c0.01-0.23,0.35-0.44,0.53-0.66c0.18,0.22,0.49,0.43,0.52,0.67C15.48,15.02,15.43,15.61,15.43,16.18z
			"/>
	</g>
</g>
</svg>
