<?xml version="1.0" encoding="utf-8"?>
<!-- Generator: Adobe Illustrator 23.1.0, SVG Export Plug-In . SVG Version: 6.00 Build 0)  -->
<svg version="1.1" id="Layer_1" xmlns="http://www.w3.org/2000/svg" xmlns:xlink="http://www.w3.org/1999/xlink" x="0px" y="0px"
	 viewBox="0 0 400 200" style="enable-background:new 0 0 400 200;" xml:space="preserve">
<style type="text/css">
	.st0{fill:#D80000;}
	.st1{fill:#FF6C3E;}
	.st2{fill:#EF7E5B;}
</style>
<g>
	<g>
		<path class="st0" d="M178.31,147.09c2.62-0.38,5.27-0.83,7.95-1.12c0.38-0.03,1.09,0.54,1.24,0.96
			c3.13,9.41,15.25,10.66,21.41,6.51c3.32-2.23,4.28-6.57,1.72-9.19c-1.28-1.31-3.19-2.2-5.01-2.81c-5.3-1.76-10.75-3.16-16.05-4.95
			c-5.27-1.79-8.84-5.23-9.29-11.14c-0.51-6.41,1.91-11.27,7.66-14.36c7.63-4.12,21.32-3.96,28.31,4.12
			c2.04,2.36,3.86,5.84,4.21,8.62c-2.97,0.51-5.94,1.02-8.36,1.47c-1.69-2.23-2.84-4.5-4.66-6c-4.21-3.57-10.95-3.73-15.25-0.8
			c-4.12,2.81-3.89,8.01,0.67,9.99c3.19,1.37,6.64,2.14,9.96,3.16c2.62,0.8,5.3,1.5,7.88,2.39c5.65,1.95,9.77,5.36,10.31,11.74
			c0.57,6.89-2.23,12.22-8.42,15.19c-9.25,4.44-18.51,4.28-27.22-1.69C181.44,156.48,178.69,151.56,178.31,147.09z"/>
		<path class="st0" d="M229.56,122.94c2.52,0,4.85,0,7.28,0c0.06,0.86,0.13,1.63,0.22,2.58c0.51-0.29,0.93-0.45,1.28-0.7
			c9.16-6.35,21.76-3.03,26.23,7.21c3.77,8.65,3.41,17.26-2.27,25.08c-5.07,6.99-15.06,8.74-22.53,4.37
			c-0.41-0.26-0.89-0.41-1.66-0.8c0,3.54,0,6.77,0,10.02c0,3.19,0,6.38,0,9.7c-2.94,0-5.65,0-8.52,0
			C229.56,161.26,229.56,142.15,229.56,122.94z M236.71,142.82c0.32,2.07,0.51,4.18,1.02,6.22c1.05,4.05,3.54,6.7,7.91,7.12
			c4.12,0.35,7.79-0.57,10.02-4.4c2.17-3.7,2.36-7.85,1.91-11.97c-0.86-8.04-6.48-12-13.95-10.08c-2.07,0.54-3.64,1.76-4.66,3.67
			C237.38,136.31,236.87,139.5,236.71,142.82z"/>
		<path class="st1" d="M43.8,127.05c-1.34-3.8-3.32-6.77-6.57-8.84c-5.36-3.38-15.41-2.74-20.01,1.6c-3.16,3-4.56,6.92-5.2,11.14
			c-0.7,4.5-0.61,9.03,0.7,13.4c1.85,6.19,5.84,10.79,12.99,11.39c4.34,0.38,8.46,0.1,12.16-2.39c2.33-1.56,4.05-3.73,5.04-6.35
			c0.64-1.63,1.34-2.2,3.13-1.44c1.76,0.73,3.73,1.05,5.74,1.6c-1.34,4.15-3.57,7.53-6.64,10.34c-4.91,4.5-10.91,6.16-17.39,6.06
			c-6.25-0.1-11.97-2.01-16.59-6.38c-3.99-3.77-6.29-8.49-7.34-13.85c-1.53-7.63-1.02-15.06,2.58-22.02
			c3.7-7.15,9.67-11.27,17.65-12.41c7.34-1.09,14.11,0.29,20.1,4.85c3.22,2.46,7.02,7.98,7.44,11.23
			C49.03,125.65,46.48,126.32,43.8,127.05z"/>
		<path class="st0" d="M396.59,145.11c-10.02,0-19.66,0-29.26,0c0.19,5.11,2.78,9.03,6.77,10.08c4.63,1.21,9.8,0.48,12.64-4.08
			c0.26-0.41,0.93-0.93,1.21-0.83c2.58,0.7,5.11,1.53,7.79,2.33c-1.76,4.05-4.47,6.99-8.2,8.9c-11.39,5.9-28.88,0.45-29.61-17.2
			c-0.29-6.73,1.24-12.92,6.41-17.65c5.81-5.27,12.7-6.22,19.91-3.99c6.96,2.14,10.44,7.53,11.65,14.42
			C396.37,139.63,396.37,142.21,396.59,145.11z M367.58,138.6c6.7,0,13.24,0,19.82,0c0.1-5.9-3.32-9.32-8.74-9.51
			C371.57,128.81,367.58,133.24,367.58,138.6z"/>
		<path class="st0" d="M308.13,162.6c-2.43,0-4.75,0-7.34,0c0-1.56,0-3.13,0-5.23c-1.02,0.96-1.69,1.53-2.33,2.14
			c-4.95,4.79-14.65,5.78-20.17,2.11c-7.4-4.98-6.96-16.43,1.09-20.3c3.45-1.66,7.37-2.3,11.17-3.16c2.94-0.67,5.97-0.99,9.13-1.5
			c0.16-2.11-0.48-3.89-1.98-5.23c-3.54-3.26-11.74-2.14-14.36,1.91c-0.35,0.51-0.61,1.12-0.96,1.76c-2.52-0.77-5.01-1.56-7.69-2.39
			c1.05-3.89,3.26-6.86,6.64-8.62c6.83-3.57,13.85-3.29,20.65,0c3.7,1.79,5.87,5.27,6,9.25
			C308.32,143.01,308.13,152.71,308.13,162.6z M299.48,143.55c-4.15,0.83-8.2,1.6-12.22,2.46c-0.93,0.19-1.82,0.67-2.68,1.15
			c-2.52,1.4-3.32,3-2.9,5.46c0.41,2.36,2.01,3.8,4.75,4.28C294.41,158.2,300.69,152.04,299.48,143.55z"/>
		<path class="st1" d="M68.47,127.85c2.65-2.65,5.14-4.53,8.3-5.3c5.84-1.37,11.33-0.93,15.76,3.64c3.13,3.22,4.34,7.4,4.44,11.78
			c0.16,7.63,0.03,15.25,0.1,22.88c0,1.4-0.51,1.82-1.82,1.72c-1.53-0.1-3.1-0.1-4.66,0c-1.47,0.1-1.88-0.57-1.85-1.95
			c0.03-6.7,0.1-13.4,0-20.14c-0.06-3.19-0.8-6.29-3.13-8.68c-4.44-4.56-13.34-2.68-15.35,3.38c-0.73,2.23-1.02,4.69-1.09,7.08
			c-0.16,6.13-0.1,12.25-0.03,18.41c0,1.4-0.41,1.98-1.85,1.88c-1.66-0.1-3.32-0.03-4.98-0.03c-1.02,0-1.5-0.41-1.47-1.44
			c0-0.35,0-0.7,0-1.02c0-15.99,0-31.98,0-48c0-2.52,0-2.52,2.58-2.52c0.99,0,1.95,0.06,2.94,0c1.4-0.13,1.76,0.51,1.76,1.82
			c-0.06,4.69-0.03,9.41,0,14.11C68.12,126.13,68.28,126.77,68.47,127.85z"/>
		<path class="st1" d="M142.5,152.77c-1.6,3.83-4.18,6.41-7.56,8.3c-8.04,4.47-18.51,2.68-24.48-4.08
			c-2.74-3.13-4.4-6.83-4.79-10.98c-0.54-5.71,0.29-11.17,3.64-16.05c5.65-8.27,18-10.66,26.23-4.91c4.5,3.16,6.89,7.69,7.6,13.12
			c0.19,1.53,0.19,3.06,0.35,4.6c0.19,1.66-0.54,2.01-2.07,2.01c-8.2-0.06-16.4-0.03-24.6-0.03c-2.78,0-2.84,0.03-2.23,2.78
			c1.5,6.92,6.16,9.1,12.57,8.39c3-0.35,5.46-1.69,7.05-4.31c0.57-0.96,1.21-0.99,2.14-0.67
			C138.32,151.56,140.37,152.1,142.5,152.77z M114.77,138.83c6.57,0,13.05,0,19.5-0.03c0.32,0,0.8-0.45,0.86-0.77
			c0.48-2.74-2.55-7.53-5.36-8.46c-3.64-1.18-7.21-0.99-10.63,0.83C116.46,131.81,114.39,135.7,114.77,138.83z"/>
		<path class="st0" d="M353.35,151.34c-1.76,5.36-4.91,9.06-10.02,11.07c-7.44,2.97-16.5,1.21-21.76-4.4
			c-3.93-4.21-5.39-9.38-5.39-15c0-7.98,2.55-14.71,9.8-18.99c7.69-4.5,19.08-2.65,24.41,4.08c1.31,1.66,2.11,3.73,3.35,5.94
			c-3.19,0.89-5.97,1.66-8.81,2.43c-0.22-0.41-0.45-0.73-0.61-1.09c-2.52-5.07-7.79-7.08-12.99-4.85c-1.21,0.51-2.39,1.44-3.19,2.46
			c-3.77,4.82-3.61,14.11-0.19,19.18c2.87,4.28,13.08,5.39,15.92-1.31c0.57-1.4,1.28-1.53,2.58-1.15
			C348.63,150.38,350.89,150.8,353.35,151.34z"/>
		<path class="st1" d="M155.91,145.72c0-4.91-0.03-9.86,0.03-14.78c0.03-1.37-0.41-1.88-1.76-1.76c-1.02,0.1-2.07-0.03-3.1,0.03
			c-1.05,0.06-1.37-0.45-1.4-1.44c-0.22-4.69-0.22-4.75,4.44-4.72c1.56,0,2.04-0.67,2.11-1.98c0.06-1.37-0.06-2.78,0.19-4.12
			c0.89-4.91,4.72-8.14,9.86-8.39c2.07-0.1,4.12,0,6.19-0.03c1.05-0.03,1.37,0.45,1.4,1.44c0.22,5.07,0.26,5.07-4.79,5.11
			c-3.8,0.03-6.19,3.61-4.75,7.21c0.13,0.35,0.86,0.64,1.34,0.67c2.23,0.06,4.47,0.06,6.7,0.03c1.12-0.03,1.53,0.41,1.5,1.53
			c-0.13,5.71,0.83,4.6-4.5,4.66c-5.17,0.06-5.17,0-5.17,5.11c0,8.71-0.03,17.42,0.03,26.14c0,1.63-0.45,2.33-2.14,2.17
			c-1.44-0.1-2.87-0.1-4.31,0s-1.91-0.51-1.88-1.91C155.94,155.71,155.91,150.73,155.91,145.72z"/>
	</g>
</g>
<g>
	<path class="st2" d="M166.88,95.78c-2.23-0.48-4.24-2.27-4.98-4.4c-0.13-0.35-1.05-6-2.23-13.31c-1.12-6.99-2.07-12.73-2.11-12.76
		s-0.45-0.19-0.86-0.38c-7.91-3-12.86-11.3-11.62-19.66c0.86-5.84,4.66-11.07,9.96-13.72c2.46-1.21,4.5-1.76,7.02-1.88l1.47-0.06
		l0.54-0.8c2.87-4.24,7.6-7.4,12.54-8.36c1.98-0.38,3.67-0.48,5.33-0.35c3.89,0.32,7.37,1.66,10.5,3.99l0.99,0.73l1.21-0.35
		c1.82-0.54,3.38-0.73,5.46-0.67c2.74,0.1,5.07,0.7,7.53,1.95c1.85,0.96,3.13,1.88,4.69,3.45c1.6,1.6,2.55,2.87,3.48,4.75
		c2.52,5.11,2.58,10.66,0.13,15.86c-0.86,1.82-1.98,3.38-3.48,4.91c-0.73,0.73-1.56,1.5-1.82,1.72l-0.45,0.35l2.04,12.64
		c1.28,7.91,2.04,12.96,2.04,13.47c0,1.76-0.67,3.32-2.01,4.66c-0.93,0.96-1.91,1.53-3,1.82c-1.12,0.29-40.56,6.57-41.17,6.57
		C167.78,95.94,167.24,95.87,166.88,95.78L166.88,95.78z M188.71,89.56c22.08-3.54,20.62-3.26,21.51-4.28
		c0.48-0.51,0.73-1.12,0.86-1.98c0.03-0.29-0.13-1.56-0.51-3.99c-0.54-3.38-0.57-3.54-0.8-3.51c-0.13,0.03-10.5,1.69-23.07,3.7
		c-12.57,2.01-22.88,3.7-22.94,3.73c-0.06,0.06,0.13,1.53,0.45,3.54c0.48,3.1,0.57,3.51,0.89,4.15c0.57,1.15,1.66,1.79,3,1.82
		C168.48,92.75,177.73,91.31,188.71,89.56z M186.54,76.34c12.61-2.01,22.94-3.7,22.94-3.7s-0.57-3.77-1.31-8.33
		c-0.8-5.04-1.31-8.42-1.28-8.58c0.1-0.35,0.73-0.99,1.66-1.63c1.63-1.12,3.41-3.29,4.4-5.3c3.22-6.64,1.37-14.49-4.5-18.92
		c-1.56-1.21-3.83-2.2-6-2.68c-1.66-0.35-6.51-0.22-6.51,0.19c0,0.06,0.16,0.29,0.35,0.54c1.05,1.31,2.36,3.77,3.03,5.65
		c0.19,0.51,0.45,1.47,0.61,2.2c0.32,1.47,0.29,1.82-0.26,2.36c-0.48,0.48-0.99,0.61-1.56,0.38c-0.7-0.26-0.96-0.67-1.21-1.95
		c-1.12-5.52-5.04-10.18-10.21-12.19c-7.4-2.9-15.8-0.29-20.14,6.22c-1.28,1.91-2.04,3.77-2.52,6c-0.29,1.4-0.38,3.83-0.22,5.36
		c0.13,1.02,0.1,1.21-0.03,1.47c-0.48,0.93-1.47,1.28-2.2,0.77c-0.77-0.51-0.93-1.05-1.02-3.51c-0.1-2.14,0.19-4.31,0.93-6.7
		c0.19-0.61,0.29-1.12,0.26-1.18c-0.13-0.13-2.3,0.29-3.29,0.61c-5.23,1.69-8.97,5.9-10.15,11.33c-0.32,1.56-0.32,4.56,0,6.06
		c0.45,2.04,1.15,3.77,2.3,5.46c0.8,1.24,2.81,3.22,3.99,4.02c1.15,0.77,2.78,1.53,4.08,1.95c1.21,0.38,1.66,0.67,1.82,1.34
		c0.06,0.22,0.67,3.89,1.34,8.17c0.67,4.24,1.24,7.85,1.28,7.98c0.03,0.13,0.13,0.22,0.26,0.22
		C163.5,80.05,173.94,78.39,186.54,76.34L186.54,76.34z"/>
	<path class="st2" d="M170.84,68.33c-0.48-0.16-2.78-2.43-4.15-4.02c-2.11-2.55-3.48-5.11-3.48-6.51c0-1.18,1.34-1.95,2.33-1.34
		c0.45,0.26,0.67,0.61,0.86,1.37c0.48,1.82,2.2,4.24,4.95,6.99c1.47,1.47,1.66,1.79,1.47,2.49c-0.06,0.19-0.26,0.51-0.45,0.7
		C171.89,68.4,171.38,68.53,170.84,68.33z"/>
	<path class="st2" d="M184.09,66.26c-0.32-0.1-0.86-0.54-1.02-0.86c-0.13-0.26-1.69-10.05-1.69-10.63c0-0.83,1.02-1.66,1.82-1.47
		c0.41,0.1,0.99,0.61,1.15,0.99c0.19,0.51,1.76,10.4,1.66,10.79c-0.1,0.48-0.45,0.89-0.96,1.12
		C184.56,66.39,184.53,66.39,184.09,66.26z"/>
	<path class="st2" d="M197.11,64.06c-0.61-0.32-1.02-0.86-1.02-1.44c0-0.13,0.45-1.15,1.02-2.27c1.72-3.48,2.33-5.39,2.36-7.53
		c0.03-1.44,0.13-1.79,0.7-2.17c1.09-0.77,2.33,0.03,2.49,1.56c0.22,1.95-0.8,5.62-2.52,9.06c-1.02,2.04-1.34,2.49-1.82,2.74
		C197.74,64.28,197.52,64.28,197.11,64.06L197.11,64.06z"/>
</g>
</svg>
