<svg width="31" height="31" viewBox="0 0 31 31" fill="none" xmlns="http://www.w3.org/2000/svg">
<g clip-path="url(#clip0)">
<path d="M8.45455 14.7955C8.45455 14.4061 8.13942 14.0909 7.74998 14.0909C7.36054 14.0909 7.04541 14.4061 7.04541 14.7955C7.04541 16.6456 9.08613 19.1859 9.31869 19.47C9.45839 19.6393 9.66064 19.7273 9.86428 19.7273C10.0211 19.7273 10.1794 19.675 10.3108 19.5677C10.6114 19.3207 10.6548 18.8769 10.4085 18.5755C9.65311 17.655 8.45455 15.8151 8.45455 14.7955Z" fill="#BC411B"/>
<path d="M23.2501 14.0909C22.8606 14.0909 22.5455 14.4061 22.5455 14.7955C22.5455 15.8117 21.347 17.6536 20.5915 18.5763C20.3452 18.8769 20.3892 19.3207 20.6899 19.5677C20.8207 19.675 20.9789 19.7273 21.1364 19.7273C21.3401 19.7273 21.5417 19.6393 21.6814 19.47C21.9139 19.1859 23.9547 16.6457 23.9547 14.7955C23.9547 14.4061 23.6395 14.0909 23.2501 14.0909Z" fill="#BC411B"/>
<path d="M15.5 14.0909C15.1105 14.0909 14.7954 14.4061 14.7954 14.7955V19.0228C14.7954 19.4122 15.1105 19.7273 15.5 19.7273C15.8894 19.7273 16.2045 19.4122 16.2045 19.0228V14.7955C16.2045 14.4061 15.8894 14.0909 15.5 14.0909Z" fill="#BC411B"/>
<path d="M23.25 2.81821C22.8231 2.81821 22.3769 2.87468 21.9135 2.96074C20.3618 1.15187 18.0647 0 15.5 0C12.9353 0 10.6382 1.15187 9.08653 2.96068C8.62311 2.87468 8.17694 2.81814 7.75005 2.81814C3.4766 2.81821 0 6.29481 0 10.5682C0 13.4964 1.65128 16.1584 4.24379 17.4746L4.23005 28.122C4.22939 28.8905 4.52794 29.6129 5.07082 30.1565C5.61435 30.7007 6.33609 31 7.10466 31H23.8982C25.4834 31 26.7728 29.7106 26.7728 28.1254V17.4643C29.3557 16.1447 31.0001 13.4868 31.0001 10.5682C31 6.29481 27.5234 2.81821 23.25 2.81821ZM25.3637 28.1255C25.3637 28.9332 24.7059 29.591 23.8981 29.591H7.1046C6.71311 29.591 6.34501 29.4382 6.06773 29.161C5.7911 28.8837 5.63839 28.5156 5.63905 28.1235L5.64275 25.3637H25.3637V28.1255ZM25.7999 16.3676C25.7627 16.3827 25.7276 16.4006 25.6946 16.422C25.6058 16.477 25.5329 16.55 25.4785 16.6339C25.4235 16.7171 25.3863 16.8135 25.3712 16.9166C25.365 16.9559 25.3629 16.9951 25.3636 17.035V23.9545H5.64454L5.65359 17.0446C5.65425 17.0061 5.6522 16.9668 5.64672 16.929C5.63159 16.8223 5.59236 16.7232 5.53522 16.6372C5.48152 16.5567 5.41138 16.4866 5.32604 16.4329C5.29096 16.4109 5.25378 16.3916 5.21527 16.3757C2.90282 15.3645 1.40907 13.0871 1.40907 10.5682C1.40907 7.07157 4.25343 4.22728 7.74998 4.22728C7.88664 4.22728 8.0309 4.24379 8.17245 4.25495C7.45962 5.49381 7.04542 6.9254 7.04542 8.45455C7.04542 8.84399 7.36055 9.15912 7.74998 9.15912C8.13942 9.15912 8.45455 8.84399 8.45455 8.45455C8.45455 4.56988 11.6154 1.40907 15.5 1.40907C19.3847 1.40907 22.5454 4.56988 22.5454 8.45455C22.5454 8.84399 22.8606 9.15912 23.25 9.15912C23.6395 9.15912 23.9546 8.84399 23.9546 8.45455C23.9546 6.9254 23.5404 5.49387 22.8276 4.25495C22.9691 4.24379 23.1134 4.22728 23.25 4.22728C26.7466 4.22728 29.5909 7.07164 29.5909 10.5682C29.5909 13.0781 28.1034 15.3527 25.7999 16.3676Z" fill="#BC411B"/>
</g>
<defs>
<clipPath id="clip0">
<rect width="31" height="31" fill="white"/>
</clipPath>
</defs>
</svg>
