<svg width="69" height="31" viewBox="0 0 69 31" fill="none" xmlns="http://www.w3.org/2000/svg">
<path d="M8.7273 14.7955C8.7273 14.4061 8.402 14.0909 8 14.0909C7.598 14.0909 7.27271 14.4061 7.27271 14.7955C7.27271 16.6456 9.37925 19.1859 9.61932 19.47C9.76352 19.6393 9.9723 19.7273 10.1825 19.7273C10.3444 19.7273 10.5078 19.675 10.6434 19.5677C10.9538 19.3207 10.9985 18.8769 10.7443 18.5755C9.96452 17.655 8.7273 15.8151 8.7273 14.7955Z" fill="#BC411B"/>
<path d="M23.9999 14.0909C23.5979 14.0909 23.2726 14.4061 23.2726 14.7955C23.2726 15.8117 22.0354 17.6536 21.2556 18.5763C21.0014 18.8769 21.0468 19.3207 21.3572 19.5677C21.4921 19.675 21.6555 19.7273 21.8181 19.7273C22.0283 19.7273 22.2364 19.6393 22.3806 19.47C22.6207 19.1859 24.7272 16.6457 24.7272 14.7955C24.7272 14.4061 24.4019 14.0909 23.9999 14.0909Z" fill="#BC411B"/>
<path d="M16 14.0909C15.598 14.0909 15.2727 14.4061 15.2727 14.7955V19.0228C15.2727 19.4122 15.598 19.7273 16 19.7273C16.402 19.7273 16.7273 19.4122 16.7273 19.0228V14.7955C16.7272 14.4061 16.4019 14.0909 16 14.0909Z" fill="#BC411B"/>
<path d="M24 2.81821C23.5593 2.81821 23.0987 2.87468 22.6204 2.96074C21.0186 1.15187 18.6475 0 16 0C13.3526 0 10.9814 1.15187 9.37964 2.96068C8.90128 2.87468 8.44071 2.81814 8.00005 2.81814C3.58875 2.81821 0 6.29481 0 10.5682C0 13.4964 1.70455 16.1584 4.38068 17.4746L4.3665 28.122C4.36582 28.8905 4.674 29.6129 5.23439 30.1565C5.79546 30.7007 6.54048 31 7.33385 31H24.6691C26.3054 31 27.6364 29.7106 27.6364 28.1254V17.4643C30.3026 16.1447 32.0001 13.4868 32.0001 10.5682C32 6.29481 28.4112 2.81821 24 2.81821ZM26.1818 28.1255C26.1818 28.9332 25.5029 29.591 24.669 29.591H7.33378C6.92966 29.591 6.54969 29.4382 6.26346 29.161C5.97791 28.8837 5.82028 28.5156 5.82096 28.1235L5.82478 25.3637H26.1818V28.1255ZM26.6321 16.3676C26.5937 16.3827 26.5575 16.4006 26.5234 16.422C26.4318 16.477 26.3565 16.55 26.3004 16.6339C26.2436 16.7171 26.2052 16.8135 26.1896 16.9166C26.1832 16.9559 26.1811 16.9951 26.1818 17.035V23.9545H5.82662L5.83596 17.0446C5.83664 17.0061 5.83453 16.9668 5.82887 16.929C5.81325 16.8223 5.77275 16.7232 5.71378 16.6372C5.65834 16.5567 5.58594 16.4866 5.49784 16.4329C5.46164 16.4109 5.42325 16.3916 5.3835 16.3757C2.99646 15.3645 1.45452 13.0871 1.45452 10.5682C1.45452 7.07157 4.39064 4.22728 7.99998 4.22728C8.14105 4.22728 8.28996 4.24379 8.43607 4.25495C7.70026 5.49381 7.27269 6.9254 7.27269 8.45455C7.27269 8.84399 7.59798 9.15912 7.99998 9.15912C8.40198 9.15912 8.72728 8.84399 8.72728 8.45455C8.72728 4.56988 11.9901 1.40907 16 1.40907C20.01 1.40907 23.2727 4.56988 23.2727 8.45455C23.2727 8.84399 23.598 9.15912 24 9.15912C24.402 9.15912 24.7273 8.84399 24.7273 8.45455C24.7273 6.9254 24.2997 5.49387 23.5639 4.25495C23.71 4.24379 23.8589 4.22728 24 4.22728C27.6094 4.22728 30.5455 7.07164 30.5455 10.5682C30.5455 13.0781 29.01 15.3527 26.6321 16.3676Z" fill="#BC411B"/>
<g clip-path="url(#clip0)">
<path d="M45.7273 14.7955C45.7273 14.4061 45.402 14.0909 45 14.0909C44.598 14.0909 44.2727 14.4061 44.2727 14.7955C44.2727 16.6456 46.3793 19.1859 46.6193 19.47C46.7635 19.6393 46.9723 19.7273 47.1825 19.7273C47.3444 19.7273 47.5078 19.675 47.6434 19.5677C47.9538 19.3207 47.9985 18.8769 47.7443 18.5755C46.9645 17.655 45.7273 15.8151 45.7273 14.7955Z" fill="#BC411B"/>
<path d="M60.9999 14.0909C60.5979 14.0909 60.2726 14.4061 60.2726 14.7955C60.2726 15.8117 59.0354 17.6536 58.2556 18.5763C58.0014 18.8769 58.0468 19.3207 58.3572 19.5677C58.4921 19.675 58.6555 19.7273 58.8181 19.7273C59.0283 19.7273 59.2364 19.6393 59.3806 19.47C59.6207 19.1859 61.7272 16.6457 61.7272 14.7955C61.7272 14.4061 61.4019 14.0909 60.9999 14.0909Z" fill="#BC411B"/>
<path d="M53 14.0909C52.598 14.0909 52.2727 14.4061 52.2727 14.7955V19.0228C52.2727 19.4122 52.598 19.7273 53 19.7273C53.402 19.7273 53.7273 19.4122 53.7273 19.0228V14.7955C53.7272 14.4061 53.4019 14.0909 53 14.0909Z" fill="#BC411B"/>
<path d="M61 2.81821C60.5593 2.81821 60.0987 2.87468 59.6204 2.96074C58.0186 1.15187 55.6475 0 53 0C50.3526 0 47.9814 1.15187 46.3796 2.96068C45.9013 2.87468 45.4407 2.81814 45.0001 2.81814C40.5888 2.81821 37 6.29481 37 10.5682C37 13.4964 38.7045 16.1584 41.3807 17.4746L41.3665 28.122C41.3658 28.8905 41.674 29.6129 42.2344 30.1565C42.7955 30.7007 43.5405 31 44.3338 31H61.6691C63.3054 31 64.6364 29.7106 64.6364 28.1254V17.4643C67.3026 16.1447 69.0001 13.4868 69.0001 10.5682C69 6.29481 65.4112 2.81821 61 2.81821ZM63.1818 28.1255C63.1818 28.9332 62.5029 29.591 61.669 29.591H44.3338C43.9297 29.591 43.5497 29.4382 43.2635 29.161C42.9779 28.8837 42.8203 28.5156 42.821 28.1235L42.8248 25.3637H63.1818V28.1255ZM63.6321 16.3676C63.5937 16.3827 63.5575 16.4006 63.5234 16.422C63.4318 16.477 63.3565 16.55 63.3004 16.6339C63.2436 16.7171 63.2052 16.8135 63.1896 16.9166C63.1832 16.9559 63.1811 16.9951 63.1818 17.035V23.9545H42.8266L42.836 17.0446C42.8366 17.0061 42.8345 16.9668 42.8289 16.929C42.8133 16.8223 42.7728 16.7232 42.7138 16.6372C42.6583 16.5567 42.5859 16.4866 42.4978 16.4329C42.4616 16.4109 42.4233 16.3916 42.3835 16.3757C39.9965 15.3645 38.4545 13.0871 38.4545 10.5682C38.4545 7.07157 41.3906 4.22728 45 4.22728C45.1411 4.22728 45.29 4.24379 45.4361 4.25495C44.7003 5.49381 44.2727 6.9254 44.2727 8.45455C44.2727 8.84399 44.598 9.15912 45 9.15912C45.402 9.15912 45.7273 8.84399 45.7273 8.45455C45.7273 4.56988 48.9901 1.40907 53 1.40907C57.01 1.40907 60.2727 4.56988 60.2727 8.45455C60.2727 8.84399 60.598 9.15912 61 9.15912C61.402 9.15912 61.7273 8.84399 61.7273 8.45455C61.7273 6.9254 61.2997 5.49387 60.5639 4.25495C60.71 4.24379 60.8589 4.22728 61 4.22728C64.6094 4.22728 67.5455 7.07164 67.5455 10.5682C67.5455 13.0781 66.01 15.3527 63.6321 16.3676Z" fill="#BC411B"/>
</g>
<defs>
<clipPath id="clip0">
<rect width="32" height="31" fill="white" transform="translate(37)"/>
</clipPath>
</defs>
</svg>
