<svg width="105" height="31" viewBox="0 0 105 31" fill="none" xmlns="http://www.w3.org/2000/svg">
<path d="M8.7273 14.7955C8.7273 14.4061 8.402 14.0909 8 14.0909C7.598 14.0909 7.27271 14.4061 7.27271 14.7955C7.27271 16.6456 9.37925 19.1859 9.61932 19.47C9.76352 19.6393 9.9723 19.7273 10.1825 19.7273C10.3444 19.7273 10.5078 19.675 10.6434 19.5677C10.9538 19.3207 10.9985 18.8769 10.7443 18.5755C9.96452 17.655 8.7273 15.8151 8.7273 14.7955Z" fill="#BC411B"/>
<path d="M23.9999 14.0909C23.5979 14.0909 23.2726 14.4061 23.2726 14.7955C23.2726 15.8117 22.0354 17.6536 21.2556 18.5763C21.0014 18.8769 21.0468 19.3207 21.3572 19.5677C21.4921 19.675 21.6555 19.7273 21.8181 19.7273C22.0283 19.7273 22.2364 19.6393 22.3806 19.47C22.6207 19.1859 24.7272 16.6457 24.7272 14.7955C24.7272 14.4061 24.4019 14.0909 23.9999 14.0909Z" fill="#BC411B"/>
<path d="M16 14.0909C15.598 14.0909 15.2727 14.4061 15.2727 14.7955V19.0228C15.2727 19.4122 15.598 19.7273 16 19.7273C16.402 19.7273 16.7273 19.4122 16.7273 19.0228V14.7955C16.7272 14.4061 16.4019 14.0909 16 14.0909Z" fill="#BC411B"/>
<path d="M24 2.81821C23.5593 2.81821 23.0987 2.87468 22.6204 2.96074C21.0186 1.15187 18.6475 0 16 0C13.3526 0 10.9814 1.15187 9.37964 2.96068C8.90128 2.87468 8.44071 2.81814 8.00005 2.81814C3.58875 2.81821 0 6.29481 0 10.5682C0 13.4964 1.70455 16.1584 4.38068 17.4746L4.3665 28.122C4.36582 28.8905 4.674 29.6129 5.23439 30.1565C5.79546 30.7007 6.54048 31 7.33385 31H24.6691C26.3054 31 27.6364 29.7106 27.6364 28.1254V17.4643C30.3026 16.1447 32.0001 13.4868 32.0001 10.5682C32 6.29481 28.4112 2.81821 24 2.81821ZM26.1818 28.1255C26.1818 28.9332 25.5029 29.591 24.669 29.591H7.33378C6.92966 29.591 6.54969 29.4382 6.26346 29.161C5.97791 28.8837 5.82028 28.5156 5.82096 28.1235L5.82478 25.3637H26.1818V28.1255ZM26.6321 16.3676C26.5937 16.3827 26.5575 16.4006 26.5234 16.422C26.4318 16.477 26.3565 16.55 26.3004 16.6339C26.2436 16.7171 26.2052 16.8135 26.1896 16.9166C26.1832 16.9559 26.1811 16.9951 26.1818 17.035V23.9545H5.82662L5.83596 17.0446C5.83664 17.0061 5.83453 16.9668 5.82887 16.929C5.81325 16.8223 5.77275 16.7232 5.71378 16.6372C5.65834 16.5567 5.58594 16.4866 5.49784 16.4329C5.46164 16.4109 5.42325 16.3916 5.3835 16.3757C2.99646 15.3645 1.45452 13.0871 1.45452 10.5682C1.45452 7.07157 4.39064 4.22728 7.99998 4.22728C8.14105 4.22728 8.28996 4.24379 8.43607 4.25495C7.70026 5.49381 7.27269 6.9254 7.27269 8.45455C7.27269 8.84399 7.59798 9.15912 7.99998 9.15912C8.40198 9.15912 8.72728 8.84399 8.72728 8.45455C8.72728 4.56988 11.9901 1.40907 16 1.40907C20.01 1.40907 23.2727 4.56988 23.2727 8.45455C23.2727 8.84399 23.598 9.15912 24 9.15912C24.402 9.15912 24.7273 8.84399 24.7273 8.45455C24.7273 6.9254 24.2997 5.49387 23.5639 4.25495C23.71 4.24379 23.8589 4.22728 24 4.22728C27.6094 4.22728 30.5455 7.07164 30.5455 10.5682C30.5455 13.0781 29.01 15.3527 26.6321 16.3676Z" fill="#BC411B"/>
<path d="M45.7273 14.7955C45.7273 14.4061 45.402 14.0909 45 14.0909C44.598 14.0909 44.2727 14.4061 44.2727 14.7955C44.2727 16.6456 46.3793 19.1859 46.6193 19.47C46.7635 19.6393 46.9723 19.7273 47.1825 19.7273C47.3444 19.7273 47.5078 19.675 47.6434 19.5677C47.9538 19.3207 47.9985 18.8769 47.7443 18.5755C46.9645 17.655 45.7273 15.8151 45.7273 14.7955Z" fill="#BC411B"/>
<path d="M60.9999 14.0909C60.5979 14.0909 60.2726 14.4061 60.2726 14.7955C60.2726 15.8117 59.0354 17.6536 58.2556 18.5763C58.0014 18.8769 58.0468 19.3207 58.3572 19.5677C58.4921 19.675 58.6555 19.7273 58.8181 19.7273C59.0283 19.7273 59.2364 19.6393 59.3806 19.47C59.6207 19.1859 61.7272 16.6457 61.7272 14.7955C61.7272 14.4061 61.4019 14.0909 60.9999 14.0909Z" fill="#BC411B"/>
<path d="M53 14.0909C52.598 14.0909 52.2727 14.4061 52.2727 14.7955V19.0228C52.2727 19.4122 52.598 19.7273 53 19.7273C53.402 19.7273 53.7273 19.4122 53.7273 19.0228V14.7955C53.7272 14.4061 53.4019 14.0909 53 14.0909Z" fill="#BC411B"/>
<path d="M61 2.81821C60.5593 2.81821 60.0987 2.87468 59.6204 2.96074C58.0186 1.15187 55.6475 0 53 0C50.3526 0 47.9814 1.15187 46.3796 2.96068C45.9013 2.87468 45.4407 2.81814 45.0001 2.81814C40.5888 2.81821 37 6.29481 37 10.5682C37 13.4964 38.7045 16.1584 41.3807 17.4746L41.3665 28.122C41.3658 28.8905 41.674 29.6129 42.2344 30.1565C42.7955 30.7007 43.5405 31 44.3338 31H61.6691C63.3054 31 64.6364 29.7106 64.6364 28.1254V17.4643C67.3026 16.1447 69.0001 13.4868 69.0001 10.5682C69 6.29481 65.4112 2.81821 61 2.81821ZM63.1818 28.1255C63.1818 28.9332 62.5029 29.591 61.669 29.591H44.3338C43.9297 29.591 43.5497 29.4382 43.2635 29.161C42.9779 28.8837 42.8203 28.5156 42.821 28.1235L42.8248 25.3637H63.1818V28.1255ZM63.6321 16.3676C63.5937 16.3827 63.5575 16.4006 63.5234 16.422C63.4318 16.477 63.3565 16.55 63.3004 16.6339C63.2436 16.7171 63.2052 16.8135 63.1896 16.9166C63.1832 16.9559 63.1811 16.9951 63.1818 17.035V23.9545H42.8266L42.836 17.0446C42.8366 17.0061 42.8345 16.9668 42.8289 16.929C42.8133 16.8223 42.7728 16.7232 42.7138 16.6372C42.6583 16.5567 42.5859 16.4866 42.4978 16.4329C42.4616 16.4109 42.4233 16.3916 42.3835 16.3757C39.9965 15.3645 38.4545 13.0871 38.4545 10.5682C38.4545 7.07157 41.3906 4.22728 45 4.22728C45.1411 4.22728 45.29 4.24379 45.4361 4.25495C44.7003 5.49381 44.2727 6.9254 44.2727 8.45455C44.2727 8.84399 44.598 9.15912 45 9.15912C45.402 9.15912 45.7273 8.84399 45.7273 8.45455C45.7273 4.56988 48.9901 1.40907 53 1.40907C57.01 1.40907 60.2727 4.56988 60.2727 8.45455C60.2727 8.84399 60.598 9.15912 61 9.15912C61.402 9.15912 61.7273 8.84399 61.7273 8.45455C61.7273 6.9254 61.2997 5.49387 60.5639 4.25495C60.71 4.24379 60.8589 4.22728 61 4.22728C64.6094 4.22728 67.5455 7.07164 67.5455 10.5682C67.5455 13.0781 66.01 15.3527 63.6321 16.3676Z" fill="#BC411B"/>
<path d="M82.4545 14.7955C82.4545 14.4061 82.1394 14.0909 81.75 14.0909C81.3605 14.0909 81.0454 14.4061 81.0454 14.7955C81.0454 16.6456 83.0861 19.1859 83.3187 19.47C83.4584 19.6393 83.6606 19.7273 83.8643 19.7273C84.0211 19.7273 84.1794 19.675 84.3108 19.5677C84.6114 19.3207 84.6548 18.8769 84.4085 18.5755C83.6531 17.655 82.4545 15.8151 82.4545 14.7955Z" fill="#BC411B"/>
<path d="M97.2501 14.0909C96.8606 14.0909 96.5455 14.4061 96.5455 14.7955C96.5455 15.8117 95.347 17.6536 94.5915 18.5763C94.3452 18.8769 94.3892 19.3207 94.6899 19.5677C94.8207 19.675 94.9789 19.7273 95.1364 19.7273C95.3401 19.7273 95.5417 19.6393 95.6814 19.47C95.9139 19.1859 97.9547 16.6457 97.9547 14.7955C97.9547 14.4061 97.6395 14.0909 97.2501 14.0909Z" fill="#BC411B"/>
<path d="M89.5 14.0909C89.1105 14.0909 88.7954 14.4061 88.7954 14.7955V19.0228C88.7954 19.4122 89.1105 19.7273 89.5 19.7273C89.8894 19.7273 90.2045 19.4122 90.2045 19.0228V14.7955C90.2045 14.4061 89.8894 14.0909 89.5 14.0909Z" fill="#BC411B"/>
<path d="M97.25 2.81821C96.8231 2.81821 96.3769 2.87468 95.9135 2.96074C94.3618 1.15187 92.0647 0 89.5 0C86.9353 0 84.6382 1.15187 83.0865 2.96068C82.6231 2.87468 82.1769 2.81814 81.75 2.81814C77.4766 2.81821 74 6.29481 74 10.5682C74 13.4964 75.6513 16.1584 78.2438 17.4746L78.23 28.122C78.2294 28.8905 78.5279 29.6129 79.0708 30.1565C79.6144 30.7007 80.3361 31 81.1047 31H97.8982C99.4834 31 100.773 29.7106 100.773 28.1254V17.4643C103.356 16.1447 105 13.4868 105 10.5682C105 6.29481 101.523 2.81821 97.25 2.81821ZM99.3637 28.1255C99.3637 28.9332 98.7059 29.591 97.8981 29.591H81.1046C80.7131 29.591 80.345 29.4382 80.0677 29.161C79.7911 28.8837 79.6384 28.5156 79.6391 28.1235L79.6428 25.3637H99.3637V28.1255ZM99.7999 16.3676C99.7627 16.3827 99.7276 16.4006 99.6946 16.422C99.6058 16.477 99.5329 16.55 99.4785 16.6339C99.4235 16.7171 99.3863 16.8135 99.3712 16.9166C99.365 16.9559 99.3629 16.9951 99.3636 17.035V23.9545H79.6445L79.6536 17.0446C79.6542 17.0061 79.6522 16.9668 79.6467 16.929C79.6316 16.8223 79.5924 16.7232 79.5352 16.6372C79.4815 16.5567 79.4114 16.4866 79.326 16.4329C79.291 16.4109 79.2538 16.3916 79.2153 16.3757C76.9028 15.3645 75.4091 13.0871 75.4091 10.5682C75.4091 7.07157 78.2534 4.22728 81.75 4.22728C81.8866 4.22728 82.0309 4.24379 82.1724 4.25495C81.4596 5.49381 81.0454 6.9254 81.0454 8.45455C81.0454 8.84399 81.3605 9.15912 81.75 9.15912C82.1394 9.15912 82.4546 8.84399 82.4546 8.45455C82.4546 4.56988 85.6154 1.40907 89.5 1.40907C93.3847 1.40907 96.5454 4.56988 96.5454 8.45455C96.5454 8.84399 96.8606 9.15912 97.25 9.15912C97.6395 9.15912 97.9546 8.84399 97.9546 8.45455C97.9546 6.9254 97.5404 5.49387 96.8276 4.25495C96.9691 4.24379 97.1134 4.22728 97.25 4.22728C100.747 4.22728 103.591 7.07164 103.591 10.5682C103.591 13.0781 102.103 15.3527 99.7999 16.3676Z" fill="#BC411B"/>
</svg>
