<svg width="23" height="23" viewBox="0 0 23 23" fill="none" xmlns="http://www.w3.org/2000/svg">
<path d="M20.061 0H2.93901C1.31841 0 0 1.29824 0 2.894V19.7534C0 21.3492 1.31841 22.6474 2.93901 22.6474H20.061C21.6816 22.6474 23 21.3492 23 19.7534V2.894C23 1.29824 21.6816 0 20.061 0ZM21.6452 19.7534C21.6452 20.6136 20.9345 21.3134 20.061 21.3134H2.93901C2.06542 21.3134 1.35471 20.6136 1.35471 19.7534V17.3203L5.81343 13.5848C5.97614 13.4484 6.2135 13.4472 6.37774 13.5815L9.17071 15.8651C9.44002 16.0853 9.83533 16.0672 10.0828 15.8233L16.7191 9.2788C16.839 9.16048 16.9789 9.14897 17.0518 9.15265C17.1246 9.15632 17.2628 9.18188 17.3698 9.31171L21.6453 14.4954V19.7534H21.6452ZM21.6452 12.3793L18.4214 8.47061C18.1017 8.08295 17.6278 7.84595 17.1213 7.82034C16.6151 7.79513 16.1187 7.98277 15.7604 8.33619L9.56081 14.4501L7.24329 12.5552C6.57131 12.0058 5.60081 12.0115 4.93552 12.5689L1.35471 15.5688V2.894C1.35471 2.0338 2.06542 1.33398 2.93901 1.33398H20.061C20.9346 1.33398 21.6452 2.0338 21.6452 2.894V12.3793Z" fill="#D97253"/>
<path d="M7.24028 2.78644C5.43914 2.78644 3.97388 4.22933 3.97388 6.00278C3.97388 7.77627 5.43918 9.21912 7.24028 9.21912C9.04138 9.21912 10.5067 7.77627 10.5067 6.00278C10.5067 4.22929 9.04142 2.78644 7.24028 2.78644ZM7.24028 7.88517C6.18614 7.88517 5.32859 7.04071 5.32859 6.00278C5.32859 4.9648 6.18614 4.12038 7.24028 4.12038C8.29442 4.12038 9.15198 4.96484 9.15198 6.00278C9.15198 7.04071 8.29442 7.88517 7.24028 7.88517Z" fill="#D97253"/>
</svg>
