<?xml version="1.0" encoding="utf-8"?>
<!-- Generator: Adobe Illustrator 23.1.0, SVG Export Plug-In . SVG Version: 6.00 Build 0)  -->
<svg version="1.1" id="Layer_1" xmlns="http://www.w3.org/2000/svg" xmlns:xlink="http://www.w3.org/1999/xlink" x="0px" y="0px"
	 viewBox="0 0 60 30" style="enable-background:new 0 0 60 30;" xml:space="preserve">
<style type="text/css">
	.st0{fill:#FEFDFD;}
	.st1{fill:#E18869;}
	.st2{fill:#FEFEFD;}
	.st3{fill:#FEFCFC;}
	.st4{fill:#E28D6F;}
	.st5{fill:#E28C6D;}
	.st6{fill:#E18767;}
</style>
<g>
	<g>
		<path class="st0" d="M0.4-0.1c10,0,20,0,30,0c0,10,0,20,0,30c-10,0-20,0-30,0C0.4,19.9,0.4,9.9,0.4-0.1z M15.3,28.1
			c2.3,0,4.6,0,6.9,0c1.8,0,2.8-1,2.8-2.8c0-2.7,0-5.4,0-8.1c0-0.5,0.1-0.8,0.6-1c2-1.3,3-3.2,3.1-5.5c0-4.1-3.6-7-7.2-6.6
			c-0.3,0-0.7-0.1-0.9-0.3c-3-2.9-7.2-2.9-10.3,0C10,4,9.6,4.1,9.3,4.1c-0.5,0.1-1,0-1.4,0C5.1,4.4,2.8,6.5,2.2,9.4
			c-0.6,2.5,0.7,5.5,3,6.8c0.4,0.3,0.6,0.5,0.6,1c0,2.7,0.1,5.3,0,8c-0.1,1.9,1.1,3,2.9,2.9C10.8,28.1,13.1,28.1,15.3,28.1z"/>
		<path class="st1" d="M15.3,28.1c-2.2,0-4.5-0.1-6.7,0c-1.8,0.1-3-1-2.9-2.9c0.1-2.7,0-5.3,0-8c0-0.5-0.2-0.8-0.6-1
			c-2.3-1.3-3.5-4.3-3-6.8c0.6-2.9,2.9-5,5.7-5.3c0.5,0,1,0,1.5,0c0.3,0,0.6-0.1,0.9-0.3c3.1-2.9,7.3-2.9,10.3,0
			c0.2,0.2,0.6,0.3,0.9,0.3c3.6-0.4,7.2,2.5,7.2,6.6c0,2.3-1,4.2-3.1,5.5c-0.4,0.3-0.6,0.6-0.6,1c0,2.7,0,5.4,0,8.1
			c0,1.8-1,2.8-2.8,2.8C19.9,28.1,17.6,28.1,15.3,28.1z M23.8,22.1c0-0.3,0-0.5,0-0.8c0-1.6,0-3.1,0-4.7c0-0.5,0.2-0.9,0.7-1.1
			c3.5-1.8,4-6.5,1-9c-1.1-0.9-2.4-1.4-3.7-1.2c0.3,1.1,0.5,2.2,0.7,3.2c0.1,0.4,0.1,0.9-0.5,0.9c-0.5,0-0.5-0.4-0.6-0.8
			c-0.1-2.7-2.1-5-4.8-5.6C14,2.3,11.2,3.5,10,6C9.6,6.8,9.5,7.9,9.2,8.8C9.1,9,8.8,9.2,8.7,9.4C8.5,9.2,8.2,9,8.1,8.8
			C8,8.5,8.1,8.2,8.2,8C8.4,7,8.7,6.1,8.9,5.2c-0.4,0-0.8-0.1-1.2,0C5.3,5.7,3.6,7.5,3.2,9.9c-0.3,2.2,0.9,4.6,3,5.6
			c0.5,0.2,0.7,0.6,0.6,1.1c0,1.6,0,3.2,0,4.8c0,0.2,0,0.5,0,0.7C12.5,22.1,18.1,22.1,23.8,22.1z M23.8,23.3c-5.6,0-11,0-16.5,0
			c-0.4,0-0.5,0.2-0.5,0.5c0,0.6,0,1.2,0,1.8c0,0.9,0.5,1.4,1.4,1.4c0.5,0,1.1,0,1.6,0c4.1,0,8.3,0,12.4,0c0.9,0,1.5-0.4,1.5-1.1
			C23.8,25.1,23.8,24.2,23.8,23.3z"/>
		<path class="st2" d="M23.8,22.1c-5.7,0-11.3,0-17,0c0-0.2,0-0.5,0-0.7c0-1.6,0-3.2,0-4.8c0-0.5-0.1-0.8-0.6-1.1
			c-2.1-1.1-3.3-3.4-3-5.6c0.4-2.4,2.1-4.2,4.5-4.7c0.4-0.1,0.8,0,1.2,0C8.7,6.1,8.4,7,8.2,8C8.1,8.2,8,8.5,8.1,8.8
			C8.2,9,8.5,9.2,8.7,9.4C8.8,9.2,9.1,9,9.2,8.8C9.5,7.9,9.6,6.8,10,6c1.2-2.4,4-3.7,6.7-3.1c2.7,0.6,4.6,2.9,4.8,5.6
			c0,0.4,0,0.9,0.6,0.8c0.6,0,0.6-0.5,0.5-0.9c-0.2-1.1-0.5-2.1-0.7-3.2c1.4-0.1,2.6,0.3,3.7,1.2c3,2.5,2.5,7.2-1,9
			c-0.5,0.3-0.7,0.6-0.7,1.1c0,1.6,0,3.1,0,4.7C23.8,21.6,23.8,21.9,23.8,22.1z M22.6,14.3c-0.1-0.1-0.3-0.5-0.5-0.5
			c-0.2,0-0.5,0.3-0.6,0.5c-0.5,0.9-0.9,1.9-1.3,2.8c-0.2,0.4-0.8,0.8-0.3,1.2c0.6,0.5,0.9-0.2,1.2-0.6
			C21.7,16.8,22.4,15.7,22.6,14.3z M8.1,14.3c0.3,1.7,1.1,2.9,2.1,4.1c0.1,0.1,0.4,0.1,0.6,0c0.1-0.1,0.2-0.3,0.2-0.5
			c0-0.2-0.1-0.3-0.2-0.5c-0.7-1-1.4-1.9-1.6-3.1c0-0.2-0.4-0.5-0.6-0.4C8.4,13.8,8.2,14.1,8.1,14.3z M15.9,16.1
			c0-0.6,0.1-1.2,0-1.7c0-0.2-0.3-0.4-0.5-0.7c-0.2,0.2-0.5,0.4-0.5,0.7c-0.1,1.1-0.1,2.3,0,3.4c0,0.2,0.3,0.6,0.5,0.6
			c0.4,0.1,0.6-0.3,0.6-0.7C15.9,17.2,15.9,16.7,15.9,16.1z"/>
		<path class="st3" d="M23.8,23.3c0,0.9,0,1.8,0,2.6c0,0.7-0.6,1.1-1.5,1.1c-4.1,0-8.3,0-12.4,0c-0.5,0-1.1,0-1.6,0
			c-0.8,0-1.4-0.5-1.4-1.4c0-0.6,0-1.2,0-1.8c0-0.3,0.1-0.5,0.5-0.5C12.8,23.3,18.2,23.3,23.8,23.3z"/>
		<path class="st4" d="M22.6,14.3c-0.2,1.4-0.9,2.5-1.6,3.5c-0.3,0.4-0.5,1.1-1.2,0.6c-0.5-0.5,0.1-0.8,0.3-1.2
			c0.5-0.9,0.9-1.9,1.3-2.8c0.1-0.2,0.4-0.6,0.6-0.5C22.3,13.8,22.4,14.2,22.6,14.3z"/>
		<path class="st5" d="M8.1,14.3c0.1-0.1,0.3-0.5,0.5-0.5s0.6,0.2,0.6,0.4c0.2,1.2,0.9,2.2,1.6,3.1c0.1,0.1,0.2,0.3,0.2,0.5
			c0,0.2-0.1,0.5-0.2,0.5c-0.2,0.1-0.5,0.1-0.6,0C9.1,17.2,8.4,15.9,8.1,14.3z"/>
		<path class="st6" d="M15.9,16.1c0,0.5,0,1.1,0,1.6c0,0.4-0.1,0.8-0.6,0.7c-0.2,0-0.5-0.4-0.5-0.6c-0.1-1.1-0.1-2.3,0-3.4
			c0-0.2,0.4-0.4,0.5-0.7c0.2,0.2,0.5,0.4,0.5,0.7C15.9,15,15.9,15.6,15.9,16.1z"/>
	</g>
</g>
<g>
	<g>
		<path class="st0" d="M30-0.1c10,0,20,0,30,0c0,10,0,20,0,30c-10,0-20,0-30,0C30,19.9,30,9.9,30-0.1z M44.9,28.1c2.3,0,4.6,0,6.9,0
			c1.8,0,2.8-1,2.8-2.8c0-2.7,0-5.4,0-8.1c0-0.5,0.2-0.8,0.6-1c2-1.3,3-3.2,3.1-5.5c0-4.1-3.6-7-7.2-6.6c-0.3,0-0.7-0.1-0.9-0.3
			c-3-2.9-7.2-2.9-10.3,0C39.5,3.9,39.2,4,38.9,4c-0.5,0.1-1,0-1.4,0c-2.8,0.3-5.1,2.4-5.7,5.3c-0.6,2.5,0.7,5.5,3,6.8
			c0.4,0.3,0.6,0.5,0.6,1c0,2.7,0,5.3,0,8c-0.1,1.9,1.1,3,2.9,2.9C40.4,28,42.6,28.1,44.9,28.1z"/>
		<path class="st1" d="M44.9,28.1c-2.2,0-4.5-0.1-6.7,0c-1.8,0.1-3-1-2.9-2.9c0.1-2.7,0-5.3,0-8c0-0.5-0.2-0.8-0.6-1
			c-2.2-1.3-3.5-4.3-3-6.8c0.6-2.9,2.9-5,5.7-5.3c0.5,0,1,0,1.5,0c0.3,0,0.7-0.1,0.9-0.3c3.1-2.9,7.3-2.9,10.3,0
			C50.3,3.9,50.7,4.1,51,4c3.6-0.4,7.2,2.5,7.2,6.6c0,2.3-1,4.2-3.1,5.5c-0.4,0.3-0.6,0.6-0.6,1c0,2.7,0,5.4,0,8.1
			c0,1.8-1,2.8-2.8,2.8C49.5,28.1,47.2,28.1,44.9,28.1z M53.4,22.1c0-0.3,0-0.5,0-0.8c0-1.6,0-3.1,0-4.7c0-0.5,0.2-0.9,0.7-1.1
			c3.5-1.8,4-6.5,1-9C54,5.5,52.7,5,51.3,5.2c0.3,1.1,0.5,2.2,0.7,3.2c0.1,0.4,0.1,0.9-0.5,0.9C51,9.3,51,8.9,51,8.4
			c-0.1-2.7-2.1-5-4.8-5.6c-2.6-0.6-5.5,0.6-6.7,3.1c-0.4,0.9-0.5,1.9-0.8,2.8c-0.1,0.2-0.3,0.4-0.5,0.6c-0.2-0.2-0.5-0.4-0.5-0.6
			c-0.1-0.2,0-0.5,0-0.8C38,7,38.2,6.1,38.5,5.2c-0.4,0-0.8-0.1-1.2,0c-2.4,0.4-4.1,2.2-4.5,4.7c-0.3,2.2,0.9,4.6,3,5.6
			c0.5,0.2,0.6,0.6,0.6,1.1c0,1.6,0,3.2,0,4.8c0,0.2,0,0.5,0,0.7C42.1,22.1,47.7,22.1,53.4,22.1z M53.3,23.2c-5.6,0-11,0-16.5,0
			c-0.4,0-0.5,0.2-0.5,0.5c0,0.6,0,1.2,0,1.8c0,0.9,0.5,1.4,1.4,1.4c0.5,0,1.1,0,1.6,0c4.1,0,8.3,0,12.4,0c0.9,0,1.5-0.4,1.5-1.1
			C53.4,25,53.3,24.2,53.3,23.2z"/>
		<path class="st2" d="M53.4,22.1c-5.7,0-11.3,0-17,0c0-0.2,0-0.5,0-0.7c0-1.6,0-3.2,0-4.8c0-0.5-0.1-0.8-0.6-1.1
			c-2.1-1.1-3.3-3.4-3-5.6c0.4-2.4,2.1-4.2,4.5-4.7c0.4-0.1,0.8,0,1.2,0C38.2,6.1,38,7,37.7,7.9c-0.1,0.3-0.1,0.6,0,0.8
			c0.1,0.2,0.3,0.4,0.5,0.6c0.2-0.2,0.5-0.4,0.5-0.6c0.3-0.9,0.4-2,0.8-2.8c1.2-2.4,4-3.7,6.7-3.1c2.7,0.6,4.6,2.9,4.8,5.6
			c0,0.4,0,0.9,0.6,0.8c0.6,0,0.6-0.5,0.5-0.9c-0.2-1-0.5-2.1-0.7-3.2C52.7,5,54,5.5,55.1,6.4c3,2.5,2.5,7.2-1,9
			c-0.5,0.3-0.7,0.6-0.7,1.1c0,1.6,0,3.1,0,4.7C53.4,21.6,53.4,21.8,53.4,22.1z M52.1,14.2c-0.1-0.1-0.3-0.5-0.5-0.5
			c-0.2,0-0.5,0.3-0.6,0.5c-0.5,0.9-0.9,1.8-1.3,2.8c-0.2,0.4-0.8,0.8-0.3,1.2c0.6,0.5,0.9-0.2,1.2-0.6
			C51.3,16.7,51.9,15.7,52.1,14.2z M37.6,14.2c0.3,1.7,1.1,2.9,2.1,4c0.1,0.1,0.5,0.1,0.6,0c0.1-0.1,0.2-0.3,0.2-0.5
			c0-0.2-0.1-0.3-0.2-0.5c-0.7-1-1.4-1.9-1.6-3.1c0-0.2-0.4-0.5-0.6-0.4C37.9,13.7,37.8,14.1,37.6,14.2z M45.4,16.1
			c0-0.6,0-1.2,0-1.7c0-0.2-0.3-0.4-0.5-0.7c-0.2,0.2-0.5,0.4-0.5,0.7c0,1.1,0,2.3,0,3.4c0,0.2,0.3,0.6,0.5,0.6
			c0.4,0.1,0.5-0.3,0.5-0.7C45.4,17.1,45.4,16.6,45.4,16.1z"/>
		<path class="st3" d="M53.3,23.2c0,0.9,0,1.8,0,2.6c0,0.7-0.6,1.1-1.5,1.1c-4.1,0-8.3,0-12.4,0c-0.5,0-1.1,0-1.6,0
			c-0.8,0-1.4-0.5-1.4-1.4c0-0.6,0-1.2,0-1.8c0-0.3,0.1-0.5,0.5-0.5C42.3,23.2,47.8,23.2,53.3,23.2z"/>
		<path class="st4" d="M52.1,14.2c-0.2,1.4-0.9,2.5-1.6,3.5c-0.3,0.4-0.5,1.1-1.2,0.6c-0.5-0.5,0.1-0.8,0.3-1.2
			c0.5-0.9,0.9-1.9,1.3-2.8c0.1-0.2,0.4-0.6,0.6-0.5C51.8,13.7,52,14.1,52.1,14.2z"/>
		<path class="st5" d="M37.6,14.2c0.1-0.1,0.3-0.5,0.5-0.5c0.2,0,0.6,0.2,0.6,0.4c0.2,1.2,0.9,2.2,1.6,3.1c0.1,0.1,0.2,0.3,0.2,0.5
			c0,0.2-0.1,0.5-0.2,0.5c-0.2,0.1-0.5,0.1-0.6,0C38.7,17.1,37.9,15.9,37.6,14.2z"/>
		<path class="st6" d="M45.4,16.1c0,0.5,0,1.1,0,1.6c0,0.4-0.1,0.8-0.5,0.7c-0.2,0-0.5-0.4-0.5-0.6c-0.1-1.1-0.1-2.3,0-3.4
			c0-0.2,0.4-0.4,0.5-0.7c0.2,0.2,0.5,0.4,0.5,0.7C45.5,14.9,45.4,15.5,45.4,16.1z"/>
	</g>
</g>
</svg>
