<svg width="17" height="19" viewBox="0 0 17 19" fill="none" xmlns="http://www.w3.org/2000/svg">
<path d="M11.9869 14.5469V16.0312C11.9869 17.6683 10.7953 19 9.33049 19H2.65637C1.1916 19 0 17.6683 0 16.0312V2.96875C0 1.33173 1.1916 0 2.65637 0H9.33049C10.7953 0 11.9869 1.33173 11.9869 2.96875V4.45312C11.9869 4.86307 11.6896 5.19531 11.3228 5.19531C10.956 5.19531 10.6587 4.86307 10.6587 4.45312V2.96875C10.6587 2.15031 10.0628 1.48438 9.33049 1.48438H2.65637C1.92405 1.48438 1.32818 2.15031 1.32818 2.96875V16.0312C1.32818 16.8497 1.92405 17.5156 2.65637 17.5156H9.33049C10.0628 17.5156 10.6587 16.8497 10.6587 16.0312V14.5469C10.6587 14.1369 10.956 13.8047 11.3228 13.8047C11.6896 13.8047 11.9869 14.1369 11.9869 14.5469ZM16.5145 8.22509L15.0274 6.56314C14.768 6.27322 14.3475 6.27322 14.0882 6.56314C13.8288 6.85291 13.8288 7.32287 14.0882 7.61264L15.146 8.79492H7.17219C6.80538 8.79492 6.5081 9.12717 6.5081 9.53711C6.5081 9.94705 6.80538 10.2793 7.17219 10.2793H15.146L14.0882 11.4616C13.8288 11.7514 13.8288 12.2213 14.0882 12.5111C14.2179 12.656 14.3878 12.7285 14.5577 12.7285C14.7278 12.7285 14.8977 12.656 15.0274 12.5111L16.5145 10.8491C17.1618 10.1256 17.1618 8.94858 16.5145 8.22509Z" fill="#EF7E5B"/>
</svg>
