<svg width="23" height="22" viewBox="0 0 23 22" fill="none" xmlns="http://www.w3.org/2000/svg">
<path d="M22.3376 10.3534C22.7308 9.95837 22.9595 9.42274 22.9595 8.84784C22.9595 8.01853 22.485 7.28966 21.779 6.93383C21.9253 6.64114 22.0028 6.31688 22.0028 5.97827C22.0028 5.14896 21.5274 4.41915 20.8214 4.06426C21.0395 3.62808 21.1036 3.12591 20.9936 2.62754C20.7793 1.65857 19.8676 0.95651 18.8258 0.95651H10.0448C9.37988 0.95651 8.30846 1.17173 7.51254 1.58114C7.17963 0.660002 6.29569 0 5.26157 0H2.39164C1.07241 0 0 1.07223 0 2.3913V10.0435C0 11.3626 1.07241 12.4348 2.3916 12.4348H7.17483C7.43887 12.4348 7.65317 12.2205 7.65317 11.9565V11.7738L7.76703 11.8312L10.5231 17.7999V21.0435C10.5231 21.1889 10.5891 21.3266 10.702 21.4175C10.7326 21.4404 11.4434 22 12.4364 22C13.5432 22 15.3063 20.2486 15.3063 18.1739C15.3063 16.8654 14.8376 15.2364 14.5448 14.3478H20.454C21.7417 14.3478 22.837 13.3951 22.9499 12.1794C23.0121 11.4974 22.7844 10.8422 22.3376 10.3534ZM21.315 10.7389C21.7847 11.0287 22.0468 11.5472 21.9961 12.0924C21.9292 12.8203 21.2519 13.3914 20.454 13.3914H13.8713C13.7144 13.3914 13.5671 13.4688 13.4772 13.598C13.3882 13.728 13.3681 13.8935 13.4246 14.0399C13.4332 14.0638 14.3497 16.4905 14.3497 18.174C14.3497 19.7408 12.9606 21.0436 12.4364 21.0436C12.024 21.0436 11.6778 20.8934 11.4797 20.7844V17.6958C11.4797 17.6269 11.4644 17.558 11.4348 17.4949L8.56482 11.2775C8.51985 11.1799 8.44236 11.0996 8.34478 11.0508L7.38815 10.5725C7.23985 10.4979 7.06291 10.5074 6.92322 10.5926C6.78259 10.6806 6.6965 10.8346 6.6965 11.0001V11.4783H2.3916C1.60044 11.4783 0.956629 10.8346 0.956629 10.0436V2.3913C0.956629 1.60024 1.60044 0.95651 2.3916 0.95651H5.26153C6.05269 0.95651 6.6965 1.60024 6.6965 2.3913C6.6965 2.5845 6.81322 2.75954 6.9921 2.83321C7.17003 2.90589 7.37573 2.86572 7.51348 2.72991C7.96501 2.27746 9.26796 1.91302 10.0448 1.91302H18.8258C19.4228 1.91302 19.9413 2.29947 20.0589 2.8351C20.1537 3.26266 20.0274 3.67781 19.7126 3.97526C19.5768 4.10246 19.527 4.29665 19.5864 4.47456C19.6457 4.65154 19.8016 4.7778 19.9862 4.79883C20.5898 4.8677 21.0462 5.37467 21.0462 5.97822C21.0462 6.30728 20.9113 6.61527 20.6693 6.84483C20.5334 6.97204 20.4837 7.16622 20.543 7.34414C20.6023 7.52111 20.7582 7.64737 20.9428 7.6684C21.5465 7.73727 22.0028 8.24424 22.0028 8.8478C22.0028 9.29352 21.7522 9.69912 21.3475 9.90573C21.1945 9.98514 21.0959 10.1401 21.0883 10.3132C21.0816 10.4854 21.1686 10.648 21.315 10.7389Z" fill="#BC411B"/>
</svg>
