<svg width="23" height="22" viewBox="0 0 23 22" fill="none" xmlns="http://www.w3.org/2000/svg">
<path d="M5.26165 0H2.39165C1.07338 0 0 1.07322 0 2.39129V10.0435C0 11.3616 1.07338 12.4348 2.39165 12.4348H6.69666V0.483971C6.29584 0.181724 5.80027 0 5.26165 0Z" fill="#BC411B"/>
<path d="M22.96 8.8478C22.96 8.01849 22.4855 7.29056 21.7785 6.93474C21.9258 6.6411 22.0033 6.31585 22.0033 5.97823C22.0033 5.14798 21.5278 4.42005 20.8208 4.06423C21.0399 3.62805 21.104 3.12588 20.994 2.62751C20.7797 1.65858 19.868 0.956482 18.8262 0.956482H10.045C9.41738 0.956482 8.43203 1.15448 7.65332 1.52179V11.7738L7.76812 11.8321L10.5233 17.8009V21.0435C10.5233 21.1889 10.5893 21.3266 10.7022 21.4175C10.7328 21.4404 11.4427 22 12.4366 22C13.5435 22 15.3066 20.2486 15.3066 18.1739C15.3066 16.8654 14.8379 15.2364 14.5451 14.3478H20.4545C21.7422 14.3478 22.8375 13.3951 22.9494 12.1794C23.0116 11.4974 22.7839 10.8421 22.3372 10.3534C22.7323 9.95832 22.96 9.42265 22.96 8.8478Z" fill="#BC411B"/>
</svg>
