<?xml version="1.0" encoding="utf-8"?>
<!-- Generator: Adobe Illustrator 23.1.0, SVG Export Plug-In . SVG Version: 6.00 Build 0)  -->
<svg version="1.1" id="Layer_1" xmlns="http://www.w3.org/2000/svg" xmlns:xlink="http://www.w3.org/1999/xlink" x="0px" y="0px"
	 viewBox="0 0 90 30" style="enable-background:new 0 0 90 30;" xml:space="preserve">
<style type="text/css">
	.st0{fill:#FEFDFD;}
	.st1{fill:#E18869;}
	.st2{fill:#FEFEFD;}
	.st3{fill:#FEFCFC;}
	.st4{fill:#E28D6F;}
	.st5{fill:#E28C6D;}
	.st6{fill:#E18767;}
</style>
<g>
	<g>
		<path class="st0" d="M0,0c10,0,20,0,30,0c0,10,0,20,0,30c-10,0-20,0-30,0C0,20,0,10,0,0z M14.8,28.2c2.3,0,4.6,0,6.9,0
			c1.8,0,2.8-1,2.8-2.8c0-2.7,0-5.4,0-8.1c0-0.5,0.1-0.8,0.6-1c2-1.3,3-3.2,3.1-5.5c0-4.1-3.6-7-7.2-6.6c-0.3,0-0.7-0.1-0.9-0.3
			C17,1,12.8,1,9.7,3.9C9.5,4.1,9.1,4.1,8.8,4.2c-0.5,0.1-1,0-1.4,0C4.6,4.5,2.3,6.6,1.7,9.5c-0.6,2.5,0.7,5.5,3,6.8
			c0.4,0.3,0.6,0.5,0.6,1c0,2.7,0.1,5.3,0,8c-0.1,1.9,1.1,3,2.9,2.9C10.4,28.2,12.6,28.2,14.8,28.2z"/>
		<path class="st1" d="M14.8,28.2c-2.2,0-4.5-0.1-6.7,0c-1.8,0.1-3-1-2.9-2.9c0.1-2.7,0-5.3,0-8c0-0.5-0.2-0.8-0.6-1
			C2.4,15,1.1,12,1.7,9.5c0.6-2.9,2.9-5,5.7-5.3c0.5,0,1,0,1.5,0c0.3,0,0.6-0.1,0.9-0.3C12.8,1,17,1,20,3.9c0.2,0.2,0.6,0.3,0.9,0.3
			c3.6-0.4,7.2,2.5,7.2,6.6c0,2.3-1,4.2-3.1,5.5c-0.4,0.3-0.6,0.6-0.6,1c0,2.7,0,5.4,0,8.1c0,1.8-1,2.8-2.8,2.8
			C19.4,28.2,17.1,28.2,14.8,28.2z M23.3,22.2c0-0.3,0-0.5,0-0.8c0-1.6,0-3.1,0-4.7c0-0.5,0.2-0.9,0.7-1.1c3.5-1.8,4-6.5,1-9
			c-1.1-0.9-2.4-1.4-3.7-1.2c0.3,1.1,0.5,2.2,0.7,3.2c0.1,0.4,0.1,0.9-0.5,0.9c-0.5,0-0.5-0.4-0.6-0.8c-0.1-2.7-2.1-5-4.8-5.6
			C13.5,2.4,10.7,3.6,9.5,6C9.1,6.9,9,7.9,8.7,8.9C8.6,9.1,8.4,9.3,8.2,9.5C8,9.3,7.7,9.1,7.7,8.8c-0.1-0.2,0-0.5,0-0.8
			c0.2-0.9,0.5-1.8,0.8-2.7c-0.4,0-0.8-0.1-1.2,0C4.8,5.8,3.1,7.6,2.8,10c-0.3,2.2,0.9,4.6,3,5.6c0.5,0.2,0.7,0.6,0.6,1.1
			c0,1.6,0,3.2,0,4.8c0,0.2,0,0.5,0,0.7C12.1,22.2,17.7,22.2,23.3,22.2z M23.3,23.4c-5.6,0-11,0-16.5,0c-0.4,0-0.5,0.2-0.5,0.5
			c0,0.6,0,1.2,0,1.8c0,0.9,0.5,1.4,1.4,1.4c0.5,0,1.1,0,1.6,0c4.1,0,8.3,0,12.4,0c0.9,0,1.5-0.4,1.5-1.1
			C23.3,25.2,23.3,24.3,23.3,23.4z"/>
		<path class="st2" d="M23.3,22.2c-5.7,0-11.3,0-17,0c0-0.2,0-0.5,0-0.7c0-1.6,0-3.2,0-4.8c0-0.5-0.1-0.8-0.6-1.1
			c-2.1-1.1-3.3-3.4-3-5.6c0.4-2.4,2.1-4.2,4.5-4.7c0.4-0.1,0.8,0,1.2,0C8.2,6.2,7.9,7.1,7.7,8C7.6,8.3,7.6,8.6,7.6,8.9
			C7.7,9.1,8,9.3,8.2,9.5c0.2-0.2,0.5-0.4,0.5-0.6c0.3-0.9,0.4-2,0.8-2.8c1.2-2.4,4-3.7,6.6-3.1c2.7,0.6,4.6,2.9,4.8,5.6
			c0,0.4,0,0.9,0.6,0.8c0.6,0,0.6-0.5,0.5-0.9c-0.2-1-0.5-2.1-0.7-3.2c1.4-0.1,2.6,0.3,3.7,1.2c3,2.5,2.5,7.2-1,9
			c-0.5,0.3-0.7,0.6-0.7,1.1c0,1.6,0,3.1,0,4.7C23.3,21.7,23.3,21.9,23.3,22.2z M22.1,14.4c-0.1-0.1-0.3-0.5-0.5-0.5
			c-0.2,0-0.5,0.3-0.6,0.5c-0.5,0.9-0.9,1.8-1.3,2.8c-0.2,0.4-0.8,0.8-0.3,1.2c0.6,0.5,0.9-0.2,1.2-0.6
			C21.2,16.8,21.9,15.8,22.1,14.4z M7.6,14.3c0.3,1.7,1.1,2.9,2.1,4c0.1,0.1,0.4,0.1,0.6,0c0.1-0.1,0.2-0.3,0.2-0.5
			c0-0.2-0.1-0.3-0.2-0.5c-0.7-1-1.4-1.9-1.6-3.1c0-0.2-0.4-0.5-0.6-0.4C7.9,13.9,7.7,14.2,7.6,14.3z M15.4,16.2
			c0-0.6,0.1-1.2,0-1.7c0-0.2-0.3-0.4-0.5-0.7c-0.2,0.2-0.5,0.4-0.5,0.7c-0.1,1.1-0.1,2.3,0,3.4c0,0.2,0.3,0.6,0.5,0.6
			c0.4,0.1,0.6-0.3,0.6-0.7C15.4,17.3,15.4,16.7,15.4,16.2z"/>
		<path class="st3" d="M23.3,23.4c0,0.9,0,1.8,0,2.6c0,0.7-0.6,1.1-1.5,1.1c-4.1,0-8.3,0-12.4,0c-0.5,0-1.1,0-1.6,0
			c-0.8,0-1.4-0.5-1.4-1.4c0-0.6,0-1.2,0-1.8c0-0.3,0.1-0.5,0.5-0.5C12.3,23.4,17.7,23.4,23.3,23.4z"/>
		<path class="st4" d="M22.1,14.4c-0.2,1.4-0.9,2.5-1.6,3.5c-0.3,0.4-0.5,1.1-1.2,0.6c-0.5-0.5,0.1-0.8,0.3-1.2
			c0.5-0.9,0.9-1.9,1.3-2.8c0.1-0.2,0.4-0.6,0.6-0.5C21.8,13.9,22,14.2,22.1,14.4z"/>
		<path class="st5" d="M7.6,14.3c0.1-0.1,0.3-0.5,0.5-0.5c0.2,0,0.6,0.2,0.6,0.4c0.2,1.2,0.9,2.2,1.6,3.1c0.1,0.1,0.2,0.3,0.2,0.5
			c0,0.2-0.1,0.5-0.2,0.5c-0.2,0.1-0.5,0.1-0.6,0C8.7,17.3,7.9,16,7.6,14.3z"/>
		<path class="st6" d="M15.4,16.2c0,0.5,0,1.1,0,1.6c0,0.4-0.1,0.8-0.6,0.7c-0.2,0-0.5-0.4-0.5-0.6c-0.1-1.1-0.1-2.3,0-3.4
			c0-0.2,0.4-0.4,0.5-0.7c0.2,0.2,0.5,0.4,0.5,0.7C15.4,15,15.4,15.6,15.4,16.2z"/>
	</g>
</g>
<g>
	<g>
		<path class="st0" d="M29.5,0c10,0,20,0,30,0c0,10,0,20,0,30c-10,0-20,0-30,0C29.5,20,29.5,10,29.5,0z M44.4,28.2
			c2.3,0,4.6,0,6.9,0c1.8,0,2.8-1,2.8-2.8c0-2.7,0-5.4,0-8.1c0-0.5,0.1-0.8,0.6-1c2-1.3,3-3.2,3.1-5.5c0-4.1-3.6-7-7.2-6.6
			c-0.3,0-0.7-0.1-0.9-0.3c-3-2.9-7.2-2.9-10.3,0C39,4,38.7,4.1,38.4,4.1c-0.5,0.1-1,0-1.4,0c-2.8,0.3-5,2.4-5.7,5.3
			c-0.6,2.5,0.7,5.5,3,6.8c0.4,0.3,0.6,0.5,0.6,1c0,2.7,0.1,5.3,0,8c-0.1,1.9,1.1,3,2.9,2.9C39.9,28.1,42.2,28.2,44.4,28.2z"/>
		<path class="st1" d="M44.4,28.2c-2.2,0-4.5-0.1-6.7,0c-1.8,0.1-3-1-2.9-2.9c0.1-2.7,0-5.3,0-8c0-0.5-0.2-0.8-0.6-1
			c-2.3-1.3-3.5-4.3-3-6.8c0.6-2.9,2.9-5,5.7-5.3c0.5,0,1,0,1.5,0c0.3,0,0.6-0.1,0.8-0.3c3.1-2.9,7.3-2.9,10.3,0
			c0.2,0.2,0.6,0.3,0.9,0.3c3.6-0.4,7.2,2.5,7.2,6.6c0,2.3-1,4.2-3.1,5.5c-0.4,0.3-0.6,0.6-0.6,1c0,2.7,0,5.4,0,8.1
			c0,1.8-1,2.8-2.8,2.8C49,28.2,46.7,28.2,44.4,28.2z M52.9,22.2c0-0.3,0-0.5,0-0.8c0-1.6,0-3.1,0-4.7c0-0.5,0.2-0.9,0.7-1.1
			c3.5-1.8,4-6.5,1-9c-1.1-0.9-2.3-1.4-3.7-1.2c0.3,1.1,0.5,2.2,0.7,3.2c0.1,0.4,0.1,0.9-0.5,0.9c-0.5,0-0.5-0.4-0.6-0.8
			c-0.1-2.7-2.1-5-4.8-5.6c-2.6-0.6-5.5,0.6-6.6,3.1c-0.4,0.9-0.5,1.9-0.8,2.8c-0.1,0.2-0.4,0.4-0.5,0.6c-0.2-0.2-0.4-0.4-0.5-0.6
			c-0.1-0.2,0-0.5,0-0.8c0.2-0.9,0.5-1.8,0.8-2.7c-0.4,0-0.8-0.1-1.2,0c-2.4,0.4-4.1,2.2-4.5,4.7c-0.4,2.2,0.9,4.6,3,5.6
			c0.5,0.2,0.7,0.6,0.6,1.1c0,1.6,0,3.2,0,4.8c0,0.2,0,0.5,0,0.7C41.6,22.2,47.2,22.2,52.9,22.2z M52.9,23.3c-5.6,0-11,0-16.5,0
			c-0.4,0-0.5,0.2-0.5,0.5c0,0.6,0,1.2,0,1.8c0,0.9,0.5,1.4,1.4,1.4c0.5,0,1.1,0,1.6,0c4.1,0,8.3,0,12.4,0c0.9,0,1.5-0.4,1.5-1.1
			C52.9,25.1,52.9,24.3,52.9,23.3z"/>
		<path class="st2" d="M52.9,22.2c-5.7,0-11.3,0-17,0c0-0.2,0-0.5,0-0.7c0-1.6,0-3.2,0-4.8c0-0.5-0.1-0.8-0.6-1.1
			c-2.1-1.1-3.3-3.4-3-5.6c0.4-2.4,2.1-4.2,4.5-4.7c0.4-0.1,0.8,0,1.2,0c-0.2,0.9-0.5,1.8-0.8,2.7c-0.1,0.3-0.1,0.6,0,0.8
			c0.1,0.2,0.3,0.4,0.5,0.6c0.2-0.2,0.5-0.4,0.5-0.6c0.3-0.9,0.4-2,0.8-2.8c1.2-2.4,4-3.7,6.7-3.1c2.7,0.6,4.6,2.9,4.8,5.6
			c0,0.4,0,0.9,0.6,0.8c0.6,0,0.6-0.5,0.5-0.9c-0.2-1.1-0.5-2.1-0.7-3.2c1.4-0.1,2.6,0.3,3.7,1.2c3,2.5,2.5,7.2-1,9
			c-0.5,0.3-0.7,0.6-0.7,1.1c0,1.6,0,3.1,0,4.7C52.9,21.7,52.9,21.9,52.9,22.2z M51.6,14.3c-0.1-0.1-0.3-0.5-0.5-0.5
			c-0.2,0-0.5,0.3-0.6,0.5c-0.5,0.9-0.9,1.8-1.3,2.8c-0.2,0.4-0.8,0.8-0.3,1.2c0.6,0.5,0.9-0.2,1.2-0.6
			C50.8,16.8,51.5,15.8,51.6,14.3z M37.1,14.3c0.3,1.7,1.1,2.9,2.1,4c0.1,0.1,0.4,0.1,0.6,0c0.1-0.1,0.2-0.3,0.2-0.5
			c0-0.2-0.1-0.3-0.2-0.5c-0.7-1-1.3-1.9-1.6-3.1c0-0.2-0.4-0.5-0.6-0.4C37.4,13.8,37.3,14.2,37.1,14.3z M45,16.2c0-0.6,0-1.2,0-1.7
			c0-0.2-0.3-0.4-0.5-0.7c-0.2,0.2-0.5,0.4-0.5,0.7c0,1.1,0,2.3,0,3.4c0,0.2,0.3,0.6,0.5,0.6c0.5,0.1,0.5-0.3,0.5-0.7
			C44.9,17.2,45,16.7,45,16.2z"/>
		<path class="st3" d="M52.9,23.3c0,0.9,0,1.8,0,2.6c0,0.7-0.6,1.1-1.5,1.1c-4.1,0-8.3,0-12.4,0c-0.5,0-1.1,0-1.6,0
			c-0.9,0-1.4-0.5-1.4-1.4c0-0.6,0-1.2,0-1.8c0-0.3,0.1-0.5,0.5-0.5C41.8,23.3,47.3,23.3,52.9,23.3z"/>
		<path class="st4" d="M51.6,14.3c-0.2,1.4-0.9,2.5-1.6,3.5c-0.3,0.4-0.5,1.1-1.2,0.6c-0.5-0.5,0.1-0.8,0.3-1.2
			c0.5-0.9,0.9-1.9,1.3-2.8c0.1-0.2,0.4-0.6,0.6-0.5C51.4,13.8,51.5,14.2,51.6,14.3z"/>
		<path class="st5" d="M37.1,14.3c0.1-0.1,0.3-0.5,0.5-0.5s0.6,0.2,0.6,0.4c0.2,1.2,0.9,2.2,1.6,3.1c0.1,0.1,0.2,0.3,0.2,0.5
			c0,0.2-0.1,0.5-0.2,0.5c-0.2,0.1-0.5,0.1-0.6,0C38.2,17.2,37.5,16,37.1,14.3z"/>
		<path class="st6" d="M45,16.2c0,0.5,0,1.1,0,1.6c0,0.4-0.1,0.8-0.6,0.7c-0.2,0-0.5-0.4-0.5-0.6c-0.1-1.1-0.1-2.3,0-3.4
			c0-0.2,0.3-0.4,0.5-0.7c0.2,0.2,0.5,0.4,0.5,0.7C45,15,45,15.6,45,16.2z"/>
	</g>
</g>
<g>
	<g>
		<path class="st0" d="M60,0c10,0,20,0,30,0c0,10,0,20,0,30c-10,0-20,0-30,0C60,20,60,10,60,0z M74.9,28.2c2.3,0,4.6,0,6.9,0
			c1.8,0,2.8-1,2.8-2.8c0-2.7,0-5.4,0-8.1c0-0.5,0.2-0.8,0.6-1c2-1.3,3.1-3.2,3.1-5.5c0-4.1-3.6-7-7.2-6.6c-0.3,0-0.7-0.1-0.9-0.3
			C77,1,72.8,1,69.7,3.9c-0.2,0.2-0.6,0.3-0.8,0.3c-0.5,0.1-1,0-1.4,0c-2.8,0.3-5,2.4-5.7,5.3c-0.6,2.5,0.7,5.5,3,6.8
			c0.4,0.3,0.6,0.5,0.6,1c0,2.7,0,5.3,0,8c-0.1,1.9,1.1,3,2.9,2.9C70.4,28.2,72.6,28.2,74.9,28.2z"/>
		<path class="st1" d="M74.9,28.2c-2.2,0-4.5-0.1-6.7,0c-1.8,0.1-3-1-2.9-2.9c0.1-2.7,0-5.3,0-8c0-0.5-0.2-0.8-0.6-1
			c-2.2-1.3-3.5-4.3-3-6.8c0.6-2.9,2.9-5,5.7-5.3c0.5,0,1,0,1.5,0c0.3,0,0.6-0.1,0.8-0.3C72.8,1,77,1,80,3.9
			c0.2,0.2,0.6,0.3,0.9,0.3c3.6-0.4,7.2,2.5,7.2,6.6c0,2.3-1,4.2-3.1,5.5c-0.4,0.3-0.6,0.6-0.6,1c0,2.7,0,5.4,0,8.1
			c0,1.8-1,2.8-2.8,2.8C79.4,28.2,77.1,28.2,74.9,28.2z M83.3,22.2c0-0.3,0-0.5,0-0.8c0-1.6,0-3.1,0-4.7c0-0.5,0.2-0.9,0.7-1.1
			c3.5-1.8,4-6.5,1-9c-1.1-0.9-2.3-1.4-3.7-1.2c0.3,1.1,0.5,2.2,0.7,3.2c0.1,0.4,0.1,0.9-0.5,0.9C81,9.4,81,9,80.9,8.6
			c-0.1-2.7-2.1-5-4.8-5.6c-2.6-0.6-5.5,0.6-6.7,3.1c-0.4,0.9-0.5,1.9-0.8,2.8c-0.1,0.2-0.3,0.4-0.5,0.6c-0.2-0.2-0.5-0.4-0.5-0.6
			c-0.1-0.2,0-0.5,0-0.8c0.2-0.9,0.5-1.8,0.8-2.7c-0.4,0-0.8-0.1-1.2,0c-2.4,0.4-4.1,2.2-4.5,4.7c-0.3,2.2,0.9,4.6,3,5.6
			c0.5,0.2,0.7,0.6,0.6,1.1c0,1.6,0,3.2,0,4.8c0,0.2,0,0.5,0,0.7C72.1,22.2,77.7,22.2,83.3,22.2z M83.3,23.4c-5.6,0-11,0-16.5,0
			c-0.4,0-0.5,0.2-0.5,0.5c0,0.6,0,1.2,0,1.8c0,0.9,0.5,1.4,1.4,1.4c0.5,0,1.1,0,1.6,0c4.1,0,8.3,0,12.4,0c0.9,0,1.5-0.4,1.5-1.1
			C83.3,25.2,83.3,24.3,83.3,23.4z"/>
		<path class="st2" d="M83.3,22.2c-5.7,0-11.3,0-17,0c0-0.2,0-0.5,0-0.7c0-1.6,0-3.2,0-4.8c0-0.5-0.1-0.8-0.6-1.1
			c-2.1-1.1-3.3-3.4-3-5.6c0.4-2.4,2.1-4.2,4.5-4.7c0.4-0.1,0.8,0,1.2,0c-0.2,0.9-0.5,1.8-0.8,2.7c-0.1,0.3-0.1,0.6,0,0.8
			c0.1,0.2,0.3,0.4,0.5,0.6c0.2-0.2,0.5-0.4,0.5-0.6c0.3-0.9,0.4-2,0.8-2.8c1.2-2.4,4-3.7,6.7-3.1c2.7,0.6,4.6,2.9,4.8,5.6
			c0,0.4,0,0.9,0.6,0.8c0.6,0,0.6-0.5,0.5-0.9c-0.2-1-0.5-2.1-0.7-3.2C82.7,5.2,84,5.6,85,6.6c3,2.5,2.5,7.2-1,9
			c-0.5,0.3-0.7,0.6-0.7,1.1c0,1.6,0,3.1,0,4.7C83.3,21.7,83.3,21.9,83.3,22.2z M82.1,14.4c-0.1-0.1-0.3-0.5-0.5-0.5
			c-0.2,0-0.5,0.3-0.6,0.5c-0.5,0.9-0.9,1.8-1.3,2.8c-0.2,0.4-0.8,0.8-0.3,1.2c0.6,0.5,0.9-0.2,1.2-0.6
			C81.2,16.8,81.9,15.8,82.1,14.4z M67.6,14.3c0.3,1.7,1.1,2.9,2.1,4c0.1,0.1,0.5,0.1,0.6,0c0.1-0.1,0.2-0.3,0.2-0.5
			c0-0.2-0.1-0.3-0.2-0.5c-0.7-1-1.3-1.9-1.6-3.1c0-0.2-0.4-0.5-0.6-0.4C67.9,13.9,67.7,14.2,67.6,14.3z M75.4,16.2
			c0-0.6,0.1-1.2,0-1.7c0-0.2-0.3-0.4-0.5-0.7c-0.2,0.2-0.5,0.4-0.5,0.7c0,1.1,0,2.3,0,3.4c0,0.2,0.3,0.6,0.5,0.6
			c0.5,0.1,0.6-0.3,0.6-0.7C75.4,17.3,75.4,16.7,75.4,16.2z"/>
		<path class="st3" d="M83.3,23.4c0,0.9,0,1.8,0,2.6c0,0.7-0.6,1.1-1.5,1.1c-4.1,0-8.3,0-12.4,0c-0.5,0-1.1,0-1.6,0
			c-0.8,0-1.4-0.5-1.4-1.4c0-0.6,0-1.2,0-1.8c0-0.3,0.1-0.5,0.5-0.5C72.3,23.4,77.7,23.4,83.3,23.4z"/>
		<path class="st4" d="M82.1,14.4c-0.2,1.4-0.9,2.5-1.6,3.5c-0.3,0.4-0.6,1.1-1.2,0.6c-0.5-0.5,0.1-0.8,0.3-1.2
			c0.5-0.9,0.9-1.9,1.3-2.8c0.1-0.2,0.4-0.6,0.6-0.5C81.8,13.9,82,14.2,82.1,14.4z"/>
		<path class="st5" d="M67.6,14.3c0.1-0.1,0.3-0.5,0.5-0.5c0.2,0,0.6,0.2,0.6,0.4c0.2,1.2,0.9,2.2,1.6,3.1c0.1,0.1,0.2,0.3,0.2,0.5
			c0,0.2-0.1,0.5-0.2,0.5c-0.2,0.1-0.5,0.1-0.6,0C68.7,17.3,67.9,16,67.6,14.3z"/>
		<path class="st6" d="M75.4,16.2c0,0.5,0,1.1,0,1.6c0,0.4-0.1,0.8-0.6,0.7c-0.2,0-0.5-0.4-0.5-0.6c-0.1-1.1-0.1-2.3,0-3.4
			c0-0.2,0.4-0.4,0.5-0.7c0.2,0.2,0.5,0.4,0.5,0.7C75.5,15,75.4,15.6,75.4,16.2z"/>
	</g>
</g>
</svg>
