<svg width="23" height="20" viewBox="0 0 23 20" fill="none" xmlns="http://www.w3.org/2000/svg">
<path d="M21.6302 7.7508L3.07326 0.168771C2.29149 -0.150681 1.40828 -0.0101521 0.768364 0.535333C0.128451 1.08091 -0.139194 1.92152 0.0699624 2.72908L1.7217 9.10717H9.80881C10.1809 9.10717 10.4827 9.40424 10.4827 9.77071C10.4827 10.1371 10.181 10.4343 9.80881 10.4343H1.7217L0.0699624 16.8123C-0.139194 17.6199 0.128406 18.4605 0.768364 19.0061C1.40958 19.5526 2.29288 19.6914 3.07331 19.3726L21.6303 11.7906C22.4752 11.4454 23 10.6714 23 9.77071C23 8.86999 22.4752 8.09595 21.6302 7.7508Z" fill="#D97253" fill-opacity="0.53"/>
</svg>
