<svg width="23" height="22" viewBox="0 0 23 22" fill="none" xmlns="http://www.w3.org/2000/svg">
<path d="M2.39129 9.56522C1.07322 9.56522 0 10.6384 0 11.9565V19.6087C0 20.9268 1.07322 22 2.39129 22H5.26086C5.7994 22 6.29485 21.8183 6.69565 21.516V9.56522H2.39129Z" fill="#BC411B"/>
<path d="M22.9565 13.1522C22.9565 12.5773 22.7289 12.0417 22.3338 11.6466C22.7806 11.1578 23.0082 10.5026 22.946 9.82061C22.8341 8.60485 21.7389 7.65215 20.4514 7.65215H14.543C14.8357 6.76353 15.3043 5.1346 15.3043 3.82608C15.3043 1.75138 13.5415 0 12.4348 0C11.441 0 10.7312 0.559566 10.7006 0.582523C10.5878 0.673407 10.5218 0.811147 10.5218 0.956508V4.20006L7.76697 10.1678L7.65218 10.2262V20.4782C8.43078 20.8455 9.41598 21.0435 10.0435 21.0435H18.8234C19.8651 21.0435 20.7767 20.3414 20.9909 19.3725C21.1009 18.8741 21.0368 18.3719 20.8178 17.9357C21.5246 17.5799 22 16.852 22 16.0217C22 15.6831 21.9226 15.3589 21.7753 15.0652C22.4821 14.7094 22.9565 13.9815 22.9565 13.1522Z" fill="#BC411B"/>
</svg>
