<svg width="23" height="22" viewBox="0 0 23 22" fill="none" xmlns="http://www.w3.org/2000/svg">
<path d="M22.96 13.1522C22.96 12.5773 22.7313 12.0417 22.3372 11.6466C22.784 11.1578 23.0117 10.5026 22.9495 9.82061C22.8375 8.60485 21.7421 7.65215 20.4545 7.65215H14.5452C14.8379 6.76353 15.3067 5.1346 15.3067 3.82608C15.3067 1.75138 13.5435 0 12.4367 0C11.4436 0 10.7328 0.559566 10.7032 0.582523C10.5893 0.673407 10.5233 0.811146 10.5233 0.956508V4.20006L7.76716 10.1678L7.6533 10.2262V10.0434C7.6533 9.77945 7.43899 9.56517 7.17495 9.56517H2.39165C1.07244 9.56522 0 10.6375 0 11.9565V19.6087C0 20.9278 1.07244 22 2.39165 22H5.26165C6.29579 22 7.17975 21.34 7.51267 20.4189C8.30865 20.8283 9.3801 21.0435 10.045 21.0435H18.8263C19.8681 21.0435 20.7798 20.3414 20.994 19.3734C21.1041 18.8741 21.04 18.3719 20.8218 17.9357C21.5279 17.5809 22.0033 16.8511 22.0033 16.0217C22.0033 15.6831 21.9259 15.3589 21.7795 15.0662C22.4855 14.7104 22.96 13.9815 22.96 13.1522ZM20.9424 14.3325C20.7578 14.3545 20.6018 14.4798 20.5425 14.6568C20.4842 14.8337 20.533 15.0279 20.6688 15.1561C20.9118 15.3847 21.0467 15.6927 21.0467 16.0217C21.0467 16.6253 20.5904 17.1323 19.9867 17.2021C19.8021 17.2241 19.6461 17.3494 19.5869 17.5263C19.5285 17.7033 19.5773 17.8975 19.7131 18.0256C20.0279 18.3222 20.1542 18.7382 20.0595 19.1668C19.9418 19.7005 19.4233 20.087 18.8263 20.087H10.045C9.26817 20.087 7.96519 19.7225 7.51366 19.2701C7.37684 19.1343 7.1702 19.0941 6.99226 19.1668C6.81338 19.2405 6.69665 19.4155 6.69665 19.6087C6.69665 20.3998 6.05283 21.0435 5.26165 21.0435H2.39165C1.60047 21.0435 0.956652 20.3998 0.956652 19.6087V11.9565C0.956652 11.1654 1.60047 10.5217 2.39165 10.5217H6.69665V11C6.69665 11.1655 6.78275 11.3195 6.92432 11.4075C7.06401 11.4916 7.24002 11.5002 7.38926 11.4276L8.34591 10.9493C8.44255 10.9014 8.52004 10.8211 8.56596 10.7226L11.436 4.50518C11.4647 4.44205 11.48 4.37318 11.48 4.30431V1.21571C11.679 1.10573 12.0244 0.956508 12.4367 0.956508C12.9609 0.956508 14.35 2.25929 14.35 3.82608C14.35 5.50957 13.4335 7.93624 13.4249 7.96019C13.3694 8.10653 13.3885 8.27203 13.4775 8.4021C13.5674 8.53123 13.7148 8.60871 13.8717 8.60871H20.4545C21.2523 8.60871 21.9297 9.17975 21.9966 9.90862C22.0473 10.4538 21.7852 10.9723 21.3155 11.2621C21.1691 11.352 21.0821 11.5146 21.0888 11.6878C21.0954 11.8609 21.195 12.0158 21.348 12.0952C21.7527 12.3009 22.0033 12.7065 22.0033 13.1522C22.0033 13.7557 21.547 14.2627 20.9424 14.3325Z" fill="#BC411B"/>
</svg>
